<?xml version="1.0" standalone="no"?>
<!DOCTYPE svg PUBLIC "-//W3C//DTD SVG 20010904//EN"
 "http://www.w3.org/TR/2001/REC-SVG-20010904/DTD/svg10.dtd">
<svg version="1.0" xmlns="http://www.w3.org/2000/svg"
 width="1024.000000pt" height="1024.000000pt" viewBox="0 0 1024.000000 1024.000000"
 preserveAspectRatio="xMidYMid meet">

<g transform="translate(0.000000,1024.000000) scale(0.100000,-0.100000)"
fill="#000000" stroke="none">
<path d="M5015 9114 c-22 -2 -96 -9 -165 -15 -883 -79 -1751 -470 -2413 -1087
-1058 -986 -1522 -2440 -1231 -3860 340 -1663 1701 -2968 3375 -3236 263 -42
371 -50 669 -50 298 0 406 8 669 50 1120 179 2131 831 2766 1784 332 498 547
1043 639 1621 42 263 50 371 50 669 0 298 -8 406 -50 669 -179 1120 -831 2131
-1784 2766 -559 373 -1159 591 -1840 670 -126 15 -595 28 -685 19z m680 -149
c680 -82 1256 -297 1815 -676 382 -258 781 -657 1039 -1039 790 -1165 921
-2611 353 -3892 -197 -443 -468 -835 -826 -1194 -665 -664 -1465 -1045 -2431
-1156 -169 -19 -656 -16 -835 6 -209 25 -525 87 -663 129 -12 3 132 100 251
168 86 50 138 82 384 243 48 31 98 60 111 65 12 5 29 16 36 25 7 9 19 16 26
16 7 0 23 11 36 25 13 13 27 25 30 25 10 0 110 68 135 91 11 11 39 32 62 47
89 60 191 142 216 175 26 33 33 57 19 57 -15 0 -1 337 15 364 6 10 11 76 5 76
-18 0 -240 -64 -250 -72 -7 -6 -13 -8 -13 -5 0 16 -73 -22 -140 -71 -95 -71
-142 -120 -135 -143 9 -27 -9 -30 -39 -6 -25 21 -27 25 -15 50 25 56 219 192
324 229 28 9 49 22 48 27 -1 5 26 12 60 15 119 12 269 1 452 -33 171 -31 189
-32 350 -28 301 10 443 36 669 124 123 48 205 90 311 161 99 66 145 105 145
122 0 5 4 10 9 10 13 0 97 89 135 143 47 66 107 192 163 342 21 56 43 189 43
258 0 158 -118 462 -273 707 -67 105 -82 122 -178 184 -48 32 -100 54 -187 79
-66 20 -130 41 -142 47 -57 31 -225 72 -348 85 -63 7 -64 8 -57 34 4 14 19 46
34 71 61 101 121 340 121 485 0 74 -23 229 -50 334 -11 45 -67 188 -80 206 -5
6 -24 41 -45 80 -30 57 -115 178 -160 229 -21 23 -94 76 -134 97 -35 18 -53
21 -107 16 -63 -5 -67 -3 -101 27 -44 38 -83 62 -193 119 -103 53 -145 64
-277 73 -258 17 -478 -53 -679 -215 -54 -44 -110 -96 -124 -116 -14 -20 -36
-49 -49 -63 -34 -39 -147 -214 -181 -283 -98 -193 -175 -445 -197 -639 -2 -25
-12 -52 -21 -61 -9 -9 -71 -38 -137 -64 -160 -63 -211 -90 -331 -173 -100 -70
-253 -219 -334 -327 -32 -43 -121 -189 -167 -275 -56 -107 -116 -263 -138
-365 -11 -50 -11 -65 0 -90 7 -16 16 -55 19 -85 12 -117 19 -165 26 -175 5 -5
11 -37 15 -70 4 -33 13 -69 19 -80 7 -11 18 -40 25 -65 7 -25 33 -86 57 -136
32 -66 44 -103 44 -135 0 -25 5 -50 12 -57 20 -20 3 -23 -47 -10 -36 10 -51
20 -62 43 -9 16 -31 51 -48 77 -75 108 -157 394 -154 532 2 49 2 49 10 -18 13
-116 29 -105 29 21 0 60 2 130 5 154 8 65 -3 76 -62 61 -26 -7 -72 -24 -100
-37 -44 -20 -56 -32 -75 -72 -13 -26 -62 -121 -110 -211 -49 -90 -88 -165 -88
-167 0 -3 -18 -33 -39 -69 -22 -35 -68 -121 -103 -192 -35 -71 -77 -151 -93
-178 -34 -59 -93 -168 -176 -330 -33 -65 -64 -115 -68 -110 -31 35 -112 149
-184 259 -272 415 -466 876 -566 1351 -253 1193 34 2403 795 3354 138 173 431
466 604 604 414 331 901 586 1388 725 292 84 517 124 882 155 102 9 562 -4
685 -19z m-163 -2493 c7 -5 22 -12 33 -15 11 -2 7 -2 -10 0 -16 2 -94 7 -172
10 -79 3 -143 9 -143 14 0 13 276 5 292 -9z m-349 -9 c-7 -2 -19 -2 -25 0 -7
3 -2 5 12 5 14 0 19 -2 13 -5z m345 -55 c65 -21 65 -21 56 -7 -9 16 25 4 116
-38 76 -36 123 -70 115 -84 -3 -4 5 -5 17 -3 13 2 17 1 10 -2 -9 -4 -6 -13 13
-29 14 -13 25 -27 25 -31 0 -5 17 -24 38 -43 43 -41 122 -142 146 -186 9 -16
21 -37 26 -45 9 -14 72 -150 90 -195 23 -54 50 -217 50 -300 0 -72 -16 -188
-29 -213 -5 -9 -15 -39 -21 -67 -15 -68 -97 -231 -126 -250 -13 -9 -24 -22
-24 -29 0 -29 -203 -233 -240 -241 -16 -3 -79 -35 -140 -71 -62 -35 -116 -64
-121 -64 -5 0 -9 -4 -9 -8 0 -9 -55 -43 -67 -41 -22 4 -43 -2 -43 -12 0 -5 5
-7 10 -4 6 3 10 4 10 1 0 -3 -17 -13 -37 -21 -21 -9 -40 -19 -43 -23 -11 -16
-78 -52 -97 -52 -12 0 -37 -7 -57 -15 -32 -14 -52 -6 -26 10 6 4 8 14 5 24 -7
24 36 64 61 55 13 -4 15 -3 6 4 -10 6 3 16 47 35 34 15 61 28 61 31 0 9 -56
-12 -114 -43 -67 -34 -86 -32 -42 5 15 14 26 27 24 30 -3 2 -11 -2 -18 -11
-23 -28 -28 -15 -28 75 0 50 3 90 8 90 4 0 6 8 4 18 -3 11 17 41 53 83 68 77
143 146 143 131 0 -6 -4 -13 -10 -17 -5 -3 -19 -20 -31 -38 -11 -18 9 0 46 38
37 39 124 129 194 201 69 71 135 143 146 159 11 16 32 42 47 58 15 16 34 50
43 76 9 25 21 54 26 63 17 34 13 104 -9 147 -12 23 -22 48 -22 55 0 22 -92
118 -127 132 -50 21 -63 16 -18 -7 68 -35 119 -100 148 -189 26 -78 26 -79 8
-116 -11 -21 -16 -45 -13 -54 3 -8 1 -12 -3 -7 -5 4 -15 -7 -22 -25 -8 -18
-13 -33 -12 -33 2 0 -9 -12 -24 -27 -15 -15 -27 -32 -27 -38 0 -6 -5 -8 -10
-5 -6 4 -9 1 -8 -7 2 -7 -3 -12 -10 -10 -8 1 -11 -2 -7 -8 3 -5 -11 -27 -32
-49 -21 -21 -59 -63 -86 -94 -26 -31 -53 -54 -60 -51 -7 2 -24 -8 -37 -23
l-25 -28 26 23 c37 33 47 27 14 -8 -16 -17 -35 -28 -43 -25 -7 2 -10 0 -7 -5
9 -15 -45 -60 -71 -60 -17 0 -22 -4 -18 -15 4 -8 2 -15 -3 -15 -6 0 -32 -21
-58 -47 -30 -31 -45 -41 -41 -28 4 13 -4 8 -24 -14 -17 -20 -25 -38 -20 -41 6
-4 5 -14 -4 -26 -15 -20 -33 -14 -20 8 4 7 7 30 5 52 -2 31 0 38 12 33 18 -7
31 18 28 50 -2 20 34 80 64 108 6 6 21 24 33 40 13 17 45 53 71 80 68 72 74
88 10 30 -98 -89 -106 -98 -167 -193 -19 -29 -36 -52 -39 -52 -7 0 3 119 12
148 10 32 25 27 25 -8 0 -16 5 -30 10 -30 6 0 10 3 11 8 0 4 3 19 5 34 2 14 0
29 -6 33 -5 3 -10 10 -10 16 0 14 28 11 33 -3 3 -7 3 6 2 29 -4 45 -8 42 82
73 87 31 212 129 228 178 3 12 9 22 13 22 4 0 8 12 8 28 3 53 8 69 23 68 10
-1 18 18 26 67 6 38 7 67 2 67 -5 0 -7 7 -3 15 7 20 -1 19 -22 -2 -16 -16 -17
-15 -20 8 -7 44 -32 62 -78 55 -44 -6 -114 -35 -114 -47 0 -4 18 0 40 8 59 24
109 9 132 -37 9 -19 17 -38 18 -42 0 -11 -66 1 -134 23 -32 11 -68 19 -79 17
-12 -2 -40 -28 -64 -58 -24 -30 -48 -60 -53 -67 -13 -16 -64 -127 -90 -193
-31 -81 -57 -315 -65 -575 -3 -126 -10 -269 -15 -316 -13 -113 -46 -242 -74
-287 -12 -21 -30 -57 -40 -81 -9 -24 -26 -55 -37 -69 -10 -14 -19 -31 -19 -38
0 -19 -93 -148 -149 -208 -25 -27 -107 -103 -181 -170 -175 -157 -187 -169
-242 -246 -79 -110 -100 -196 -86 -342 13 -131 14 -136 27 -152 8 -10 9 -16 1
-21 -7 -4 -7 -12 0 -25 5 -10 10 -26 10 -35 0 -16 11 -45 50 -130 10 -22 23
-52 29 -67 10 -28 99 -157 134 -195 11 -13 18 -25 15 -28 -7 -8 -122 103 -162
157 -41 55 -102 170 -128 243 -28 79 -43 198 -43 350 0 180 19 250 94 350 53
71 158 168 171 160 5 -3 8 0 5 7 -3 7 18 32 50 57 30 24 55 48 55 52 0 5 6 9
13 10 18 1 130 139 132 163 1 12 8 21 15 21 7 0 14 10 15 22 1 11 10 34 20 50
41 61 85 156 99 216 13 54 -12 17 -34 -49 -11 -36 -31 -82 -43 -102 -12 -21
-29 -50 -37 -67 -8 -16 -23 -39 -34 -50 -27 -29 -96 -123 -96 -131 0 -3 8 0
18 7 15 13 16 12 4 -3 -8 -9 -19 -15 -26 -12 -7 3 -19 -2 -26 -11 -15 -18 0
-21 18 -3 7 7 12 8 12 2 0 -16 -21 -33 -34 -28 -7 3 -27 -9 -44 -26 -18 -16
-35 -30 -38 -30 -11 0 -65 -42 -60 -47 2 -2 17 3 33 12 l28 17 -24 -21 c-13
-12 -32 -21 -42 -21 -13 0 -17 -5 -12 -17 6 -15 4 -16 -9 -5 -9 7 -18 9 -20 4
-1 -4 -24 -23 -50 -41 -27 -17 -48 -36 -48 -41 0 -5 -8 -7 -17 -4 -16 5 -16 4
1 -10 17 -13 17 -18 5 -33 -8 -10 -20 -22 -26 -26 -7 -4 -13 -16 -13 -25 0
-10 -4 -22 -9 -28 -21 -21 -61 -136 -68 -195 -12 -93 -6 -256 13 -351 9 -46
17 -95 18 -110 0 -16 4 -28 7 -28 4 0 10 -7 13 -16 3 -8 2 -12 -4 -9 -6 3 -7
-1 -4 -9 3 -9 10 -16 14 -16 5 0 12 -15 15 -33 7 -28 38 -83 56 -97 3 -3 8
-10 10 -16 12 -35 159 -188 201 -210 15 -8 31 -20 35 -27 10 -18 141 -102 173
-112 23 -7 24 -8 5 -15 -17 -6 -13 -9 20 -18 22 -6 69 -13 105 -17 100 -10 99
-9 88 -54 -8 -30 -16 -41 -36 -46 -20 -5 -23 -8 -11 -16 12 -7 11 -9 -3 -9 -9
0 -20 5 -24 11 -3 6 -19 9 -35 5 -16 -3 -63 4 -106 15 -43 12 -105 26 -137 33
-33 6 -61 17 -64 24 -2 7 -9 12 -16 12 -24 0 -173 79 -231 123 -66 50 -183
161 -202 192 -6 11 -12 14 -12 7 -1 -7 38 -53 85 -102 94 -97 102 -123 12 -38
-91 87 -203 253 -188 278 10 16 0 51 -12 44 -5 -3 -7 -12 -4 -20 3 -7 1 -16
-4 -19 -5 -3 -11 4 -15 15 -6 18 -25 29 -25 15 0 -6 31 -57 40 -65 13 -12 62
-94 64 -106 1 -8 13 -26 27 -41 13 -16 39 -45 56 -66 18 -22 33 -36 33 -31 0
4 11 -4 24 -17 38 -39 77 -69 88 -69 6 0 5 6 -2 15 -21 25 -3 17 64 -29 35
-24 84 -51 110 -61 25 -10 46 -22 46 -26 0 -13 -13 -11 -38 7 -12 8 -22 12
-22 8 0 -3 -6 -2 -12 4 -13 10 -129 72 -136 72 -3 0 1 -6 7 -13 6 -8 8 -17 4
-20 -3 -4 4 -7 16 -7 12 0 41 -10 64 -22 56 -29 136 -58 162 -58 11 0 29 -6
40 -14 11 -7 37 -16 57 -20 20 -4 39 -12 42 -19 5 -9 7 -9 12 1 3 6 12 12 20
12 9 0 12 -4 9 -10 -4 -6 6 -10 21 -10 24 0 54 -5 172 -26 12 -3 22 -12 22
-20 0 -13 6 -15 28 -9 15 4 33 8 40 8 6 0 12 5 11 11 -3 26 2 36 19 36 11 0
52 8 93 19 135 33 129 33 123 16 -10 -24 5 -17 37 17 16 18 29 27 29 21 0 -7
-5 -15 -10 -18 -6 -4 -8 -10 -5 -15 3 -5 18 4 33 20 15 16 40 32 57 36 27 7
25 4 -23 -39 -64 -57 -161 -105 -173 -85 -7 10 -9 10 -9 1 0 -7 -6 -13 -14
-13 -8 0 -16 -7 -20 -15 -3 -9 -19 -15 -41 -15 -23 0 -34 -4 -32 -12 4 -22
-277 -12 -618 22 -130 13 -356 50 -410 67 -68 23 -293 138 -325 167 -14 12
-35 30 -47 38 -20 13 -73 81 -73 94 0 2 -13 22 -29 44 -16 22 -34 60 -40 85
-6 25 -16 45 -21 45 -6 0 -10 11 -10 25 0 13 -11 58 -25 98 -33 100 -47 278
-35 472 13 211 37 375 54 365 5 -3 13 6 18 20 6 16 5 26 -1 28 -6 2 -6 12 1
27 6 14 15 22 19 19 9 -5 24 42 21 66 -3 26 62 135 80 134 11 -1 22 15 35 46
17 46 50 93 101 147 12 13 22 29 22 35 0 6 2 9 5 6 3 -3 43 31 88 76 143 141
268 223 177 116 -17 -19 -30 -42 -30 -52 0 -16 -42 -87 -59 -98 -4 -3 -23 -36
-41 -75 -45 -93 -45 -94 -21 -65 11 14 21 30 21 37 0 6 15 31 33 55 37 49 127
203 127 217 0 5 21 40 46 78 114 168 131 241 119 523 -10 230 -9 382 5 465 25
155 34 196 60 275 28 84 80 217 123 315 29 65 193 312 218 328 10 6 19 20 19
29 0 16 5 20 27 17 4 0 10 9 15 20 4 12 16 21 27 21 10 0 21 7 25 15 3 8 13
15 21 15 12 0 15 6 10 20 -5 15 0 23 22 32 15 7 34 18 41 25 18 17 25 16 18
-2 -6 -17 5 -20 20 -6 21 22 246 88 354 105 66 10 226 1 278 -16z m-458 -2 c0
-2 -13 -9 -30 -15 -16 -5 -30 -6 -30 -1 0 5 8 11 18 13 24 7 42 8 42 3z m-80
-26 c-19 -13 -30 -13 -30 0 0 6 10 10 23 10 18 0 19 -2 7 -10z m-70 -30 c0 -5
-8 -10 -17 -10 -15 0 -16 2 -3 10 19 12 20 12 20 0z m983 -109 c15 -8 27 -18
27 -23 0 -4 6 -8 13 -8 34 -1 207 -200 207 -239 0 -6 7 -11 15 -11 20 0 20 1
-15 61 -39 65 -85 123 -132 168 -42 39 -47 51 -20 51 31 0 76 -35 132 -103 30
-36 59 -66 63 -66 10 -1 -20 41 -67 93 -43 48 -45 54 -8 31 65 -42 164 -180
249 -350 94 -187 117 -290 110 -506 -4 -154 -6 -170 -26 -222 -8 -20 -8 -26 0
-21 7 4 9 0 6 -12 -4 -11 -9 -32 -13 -49 -9 -41 -85 -217 -91 -211 -3 3 4 24
15 48 11 24 23 54 26 68 l7 25 -15 -25 c-8 -14 -30 -60 -47 -103 -36 -84 -37
-85 -147 -102 -36 -6 -41 -4 -36 9 3 9 12 16 20 16 8 0 14 7 14 15 0 9 12 27
26 40 29 27 42 49 103 170 82 164 99 256 94 496 -2 90 -33 233 -59 278 -9 15
-12 18 -8 6 4 -11 6 -28 6 -37 0 -10 3 -18 8 -18 4 0 10 -15 13 -32 3 -18 10
-63 17 -99 18 -108 8 -298 -23 -399 -51 -172 -92 -246 -154 -283 -26 -15 -31
-22 -21 -28 8 -5 17 -3 24 6 12 16 34 21 34 8 0 -5 -18 -28 -40 -53 -38 -44
-39 -44 -54 -25 -8 11 -16 15 -16 9 0 -6 3 -14 7 -18 27 -26 -1 -58 -67 -74
-91 -23 -116 -25 -102 -11 21 23 13 31 -13 12 -13 -10 -25 -24 -25 -30 0 -7
-9 -13 -21 -13 -19 0 -18 2 8 38 15 20 43 53 61 72 18 19 51 63 74 98 22 34
44 62 48 62 15 0 81 151 107 245 46 165 38 369 -22 550 -52 157 -154 330 -257
434 -46 46 -78 82 -73 80 6 -3 22 -11 38 -18z m-318 -591 c3 -5 2 -10 -4 -10
-5 0 -13 5 -16 10 -3 6 -2 10 4 10 5 0 13 -4 16 -10z m55 -108 c0 -7 -4 -10
-10 -7 -5 3 -10 16 -10 28 0 18 2 19 10 7 5 -8 10 -21 10 -28z m-6 -52 c-6 -6
-10 -2 -11 12 -2 16 1 18 10 9 7 -7 8 -14 1 -21z m-196 -52 c15 -15 16 -48 2
-48 -6 0 -26 -18 -46 -40 -38 -42 -54 -50 -54 -25 0 9 -10 15 -26 15 -14 0
-23 -4 -19 -10 3 -5 -1 -10 -9 -10 -25 0 -26 14 -3 55 33 60 122 96 155 63z
m12 -137 c0 -6 -4 -13 -10 -16 -5 -3 -10 1 -10 9 0 9 5 16 10 16 6 0 10 -4 10
-9z m-1282 -253 c-3 -7 -13 -15 -24 -16 -10 -2 -23 -8 -29 -14 -7 -7 1 -8 23
-3 l33 7 -1 -84 c-1 -45 1 -117 5 -159 l7 -76 -86 -78 c-48 -43 -103 -90 -123
-104 -20 -15 -68 -57 -106 -96 -40 -39 -77 -69 -86 -67 -13 2 -13 1 -2 -7 11
-7 5 -20 -33 -65 -26 -30 -45 -60 -41 -66 4 -6 1 -9 -7 -8 -8 2 -12 -5 -11
-17 1 -10 -5 -32 -13 -47 -8 -15 -11 -28 -6 -28 5 0 19 22 32 50 13 27 38 66
56 86 19 20 32 39 31 43 -2 7 87 107 131 145 13 12 64 60 115 108 51 47 104
96 120 108 45 35 32 1 -20 -54 l-48 -50 45 39 c43 38 45 38 48 17 2 -12 -6
-35 -17 -51 -12 -16 -21 -34 -21 -40 0 -6 -3 -11 -8 -11 -4 0 -13 -14 -20 -30
-8 -17 -17 -28 -22 -25 -5 3 -17 -6 -28 -20 -11 -14 -25 -25 -31 -25 -6 0 -11
-5 -11 -10 0 -6 -30 -41 -68 -78 -37 -37 -96 -111 -131 -164 -37 -57 -70 -98
-80 -98 -13 0 -13 -2 -2 -9 8 -5 10 -14 5 -22 -6 -12 -5 -12 9 0 9 7 17 18 17
23 0 6 11 19 25 30 14 11 24 25 22 32 -7 18 47 85 171 213 50 52 92 99 92 104
0 5 6 9 13 9 15 0 57 60 57 82 0 9 7 22 16 29 15 12 16 10 10 -21 -8 -40 -37
-100 -48 -100 -5 0 -8 -12 -8 -27 -1 -35 -43 -89 -139 -179 -133 -125 -208
-199 -217 -214 -5 -8 -22 -26 -38 -40 -23 -20 -28 -21 -23 -7 4 11 3 16 -4 12
-6 -4 -8 -14 -4 -23 3 -8 2 -18 -2 -21 -9 -6 -117 -143 -143 -180 -24 -34 -40
-26 -33 17 4 28 3 34 -6 26 -7 -6 -14 -38 -15 -70 -2 -36 -14 -83 -30 -119
-61 -136 -70 -155 -77 -155 -9 0 -25 50 -35 105 -4 22 -11 47 -16 55 -12 21
-3 -49 17 -123 17 -67 18 -77 6 -77 -5 0 -12 12 -16 28 -3 15 -13 41 -20 57
-8 17 -23 88 -33 160 -10 71 -21 125 -24 120 -9 -16 21 -225 42 -291 32 -98
35 -147 15 -201 -10 -27 -21 -52 -25 -56 -14 -16 -129 209 -131 256 0 21 -1
21 -8 2 -7 -16 -11 -11 -25 31 -49 148 -36 358 35 569 23 66 47 127 53 135 7
8 16 22 19 30 13 34 146 243 198 312 31 40 87 104 125 142 76 74 197 176 209
176 5 0 16 6 24 14 25 22 145 84 219 112 37 15 81 32 97 40 38 17 58 18 53 2z
m2447 -397 c50 -12 107 -29 129 -38 48 -21 149 -138 183 -213 14 -30 30 -63
34 -72 5 -10 9 -23 9 -30 0 -7 11 -18 25 -25 24 -11 36 -1 15 12 -9 6 -62 101
-59 107 1 7 -14 45 -27 68 -9 14 -17 32 -20 40 -3 8 -21 25 -40 38 -20 13 -34
26 -31 28 5 5 72 -9 184 -38 75 -19 201 -132 260 -233 77 -132 158 -304 188
-400 10 -33 20 -67 23 -75 3 -8 7 -22 10 -30 3 -8 6 -77 8 -153 3 -115 1 -145
-15 -185 -10 -26 -16 -53 -13 -61 2 -8 0 -11 -6 -8 -5 4 -12 -2 -15 -13 -3
-11 -1 -18 4 -14 5 3 9 0 9 -5 0 -6 -4 -11 -9 -11 -5 0 -8 -12 -8 -26 0 -14
-10 -39 -22 -54 -11 -16 -21 -34 -21 -41 0 -6 -9 -22 -20 -36 -11 -14 -20 -32
-20 -39 0 -8 -4 -14 -8 -14 -5 0 -15 -12 -22 -27 -19 -39 -33 -55 -141 -163
-53 -53 -122 -110 -155 -129 -32 -19 -84 -48 -114 -66 -130 -77 -301 -137
-460 -161 -47 -7 -110 -18 -140 -24 -133 -25 -501 -3 -730 45 -36 7 -92 16
-125 20 -32 3 -71 8 -85 11 -17 4 -21 3 -11 -4 20 -15 1 -22 -86 -32 -122 -14
-288 -69 -378 -124 -82 -52 -205 -168 -205 -195 0 -9 -9 -21 -19 -28 -17 -10
-27 -3 -85 59 -36 39 -66 77 -66 85 0 7 -9 23 -20 35 -25 27 -25 43 -1 67 11
11 27 33 35 48 26 50 119 137 216 202 52 35 99 64 105 65 5 1 15 4 20 7 6 3
30 11 55 18 25 8 65 19 90 27 25 7 83 18 130 24 86 12 286 20 294 13 2 -2 35
-6 72 -7 38 -2 92 -7 119 -11 28 -4 48 -5 45 -2 -10 11 -198 37 -278 38 -45 1
-85 6 -88 10 -3 5 -11 9 -17 9 -8 0 -7 -4 2 -9 10 -6 -5 -11 -45 -16 -32 -3
-84 -10 -114 -14 -32 -5 -56 -5 -58 0 -5 14 -28 11 -75 -10 -23 -10 -69 -29
-102 -42 -61 -23 -86 -38 -207 -121 -69 -48 -128 -107 -163 -162 -27 -43 -61
-86 -69 -86 -12 0 -66 123 -66 149 0 15 15 43 34 66 26 31 36 37 47 28 11 -9
14 -6 15 14 2 29 6 34 32 36 11 0 18 6 16 12 -3 6 21 24 52 40 31 16 58 34 61
42 3 7 9 10 15 7 5 -3 19 3 31 14 75 68 440 186 578 187 59 0 75 3 71 13 -3 9
-16 12 -41 8 -20 -3 -58 -8 -86 -12 -134 -16 -452 -125 -540 -184 -87 -59
-125 -80 -125 -70 0 6 8 14 18 17 9 4 23 12 29 19 7 7 41 29 75 50 35 20 74
44 88 53 14 8 34 15 45 14 19 -2 19 -1 1 4 -15 4 -7 11 35 29 29 12 61 21 69
19 20 -6 122 31 135 49 6 7 19 16 30 19 11 3 4 5 -15 4 -19 -1 -34 -7 -33 -13
1 -6 -24 -17 -55 -24 -77 -16 -164 -53 -240 -101 -35 -21 -65 -39 -68 -39 -11
0 -91 -61 -138 -104 -26 -26 -52 -46 -57 -46 -5 0 -9 -3 -9 -7 -1 -18 -69 -85
-79 -79 -6 4 -9 11 -6 16 3 5 -1 20 -10 34 -9 13 -15 30 -14 38 5 24 -13 98
-21 93 -5 -3 -9 3 -9 12 1 10 -4 52 -9 93 -9 71 -8 77 15 107 25 34 165 155
218 188 82 52 308 166 355 180 3 0 32 9 65 19 33 10 68 20 78 21 9 2 21 7 27
10 17 11 200 27 354 32 116 3 166 1 220 -12 93 -21 185 -50 249 -79 107 -47
122 -51 212 -51 75 0 99 4 140 24 85 41 205 148 242 216 20 37 34 185 17 185
-6 0 -18 10 -27 23 -8 12 -18 19 -23 14 -4 -4 -2 -13 4 -19 15 -15 16 -32 2
-23 -5 3 -10 2 -10 -4 0 -6 -21 1 -46 14 -26 14 -58 25 -71 25 -21 0 -100 -34
-177 -76 -48 -27 -166 -146 -203 -206 -20 -32 -40 -58 -44 -58 -12 0 -11 27 1
35 6 3 10 14 10 23 0 11 -8 5 -20 -16 -17 -28 -23 -31 -40 -22 -11 6 -20 15
-20 21 0 6 -5 7 -11 3 -7 -4 -10 1 -7 12 2 11 9 20 16 20 6 1 17 2 22 3 6 0
10 9 10 19 -1 16 -2 16 -14 -1 -14 -18 -14 -18 -18 0 -3 14 -8 11 -21 -14 -23
-43 -47 -44 -42 -1 7 53 105 178 140 178 11 0 15 5 12 14 -6 15 31 55 54 60
33 7 51 19 39 26 -36 22 -226 -175 -252 -262 -9 -30 -16 -38 -35 -38 -13 0
-26 7 -29 15 -7 17 33 105 47 105 5 0 9 5 9 12 0 6 11 26 25 44 14 18 25 37
25 42 0 6 6 13 13 15 6 3 8 6 2 6 -14 1 -102 -120 -126 -174 -17 -39 -24 -45
-49 -45 -17 0 -30 4 -30 9 0 12 61 105 72 109 4 2 8 10 8 17 0 16 177 198 239
245 124 95 263 154 391 166 100 10 87 17 -17 10 -169 -12 -369 -114 -485 -247
-26 -30 -63 -72 -82 -94 -38 -42 -106 -140 -106 -152 0 -4 -10 -17 -22 -30
-28 -30 -105 -34 -93 -5 3 9 10 38 15 64 5 26 22 73 38 105 16 32 27 64 25 71
-3 7 1 11 7 10 7 -2 15 3 18 11 3 9 0 11 -8 6 -9 -5 -11 -4 -6 4 4 6 11 9 16
6 9 -6 32 19 29 31 -5 20 25 65 39 59 9 -3 37 17 72 52 94 94 203 162 308 194
23 7 48 19 55 27 10 13 8 14 -13 7 -114 -34 -242 -106 -335 -189 -21 -19 -41
-33 -44 -30 -5 5 13 22 101 94 104 85 125 100 141 100 8 0 17 7 21 15 7 20
-17 8 -104 -53 -90 -64 -183 -153 -249 -242 -67 -89 -83 -119 -74 -133 4 -6 1
-7 -7 -2 -10 6 -12 4 -7 -8 3 -10 2 -17 -4 -17 -14 0 -61 -108 -56 -129 2 -9
9 3 16 26 6 23 15 45 20 47 5 3 3 -16 -4 -42 -7 -26 -16 -58 -19 -72 -5 -23
-9 -25 -71 -26 -36 0 -65 2 -65 5 0 3 12 49 25 101 14 52 27 100 28 106 5 21
80 159 97 179 10 11 26 34 36 50 l18 30 -21 -18 c-12 -11 -37 -43 -55 -73 -20
-32 -38 -52 -46 -49 -10 4 -12 -3 -10 -23 2 -22 -1 -26 -16 -24 -14 3 -17 -1
-13 -13 4 -8 1 -32 -7 -53 -31 -86 -57 -178 -54 -191 4 -18 -35 -27 -171 -41
-80 -7 -107 -7 -112 2 -4 7 -6 15 -4 18 2 4 -9 4 -25 2 -18 -3 -27 -9 -24 -17
5 -13 -45 -55 -65 -55 -7 0 -14 -7 -17 -15 -6 -14 -34 -22 -34 -9 0 11 45 45
80 61 19 9 29 18 22 20 -8 3 2 22 30 56 40 48 73 94 110 157 8 14 34 75 58
135 45 115 86 196 129 255 58 80 140 166 196 208 33 24 64 50 68 58 4 8 13 14
19 14 5 0 27 14 48 30 21 17 42 30 47 30 4 0 30 11 56 25 43 23 150 61 199 70
10 2 22 6 27 10 6 3 29 8 53 12 24 3 66 9 93 14 88 14 341 3 440 -20z m-950
-111 c-3 -5 -11 -10 -16 -10 -6 0 -7 5 -4 10 3 6 11 10 16 10 6 0 7 -4 4 -10z
m-90 -60 c-27 -12 -43 -12 -25 0 8 5 22 9 30 9 10 0 8 -3 -5 -9z m-77 -59
c-13 -17 -38 -37 -55 -46 -18 -9 -33 -19 -33 -23 -1 -11 -50 -44 -50 -34 0 15
87 102 103 102 8 0 20 7 27 15 24 28 31 15 8 -14z m-311 -247 c-5 -44 -73
-194 -88 -194 -18 0 -21 24 -5 36 13 9 14 13 4 17 -8 3 -4 9 12 15 19 8 21 11
7 11 -20 1 -17 27 9 68 8 12 14 28 14 35 0 18 29 58 42 58 7 0 9 -17 5 -46z
m0 -156 c-3 -8 -6 -5 -6 6 -1 11 2 17 5 13 3 -3 4 -12 1 -19z m-21 -14 c-5
-12 -2 -15 10 -10 12 5 15 2 10 -10 -3 -8 -6 -19 -6 -23 0 -5 -11 -20 -25 -35
-14 -15 -25 -32 -25 -38 0 -5 9 0 20 13 10 13 19 20 20 16 0 -17 -54 -114 -86
-154 -19 -23 -34 -44 -34 -48 0 -3 -15 -21 -32 -38 -18 -18 -51 -54 -73 -81
-51 -61 -107 -100 -169 -115 -27 -7 -93 -34 -145 -61 -54 -28 -84 -40 -70 -27
86 72 114 92 125 91 7 -1 12 3 11 10 -1 6 12 11 30 12 36 0 59 14 25 14 -32 0
-27 18 11 38 35 18 170 149 202 196 57 82 68 105 44 90 -8 -4 -8 -1 -1 12 18
33 41 59 42 48 0 -6 -7 -17 -15 -24 -16 -13 -21 -35 -6 -25 14 8 62 97 56 103
-3 3 -5 1 -5 -5 0 -6 -7 -13 -15 -17 -13 -4 -14 -2 -5 14 12 22 25 26 35 10 6
-9 -41 -119 -55 -130 -8 -6 -21 -40 -15 -40 14 0 125 194 125 219 0 6 5 11 11
11 6 0 8 -7 5 -16z m-466 -203 c-5 -11 -15 -23 -22 -27 -7 -5 -8 -2 -3 7 21
37 44 55 25 20z m1739 -43 c28 -13 51 -28 51 -34 0 -17 -76 -127 -111 -161
-39 -36 -134 -86 -196 -103 -57 -14 -142 -3 -191 26 -2 1 7 18 19 38 15 26 25
34 32 27 7 -7 7 -19 -2 -37 -11 -24 -10 -26 3 -14 9 7 16 19 16 26 0 43 36 94
105 153 126 105 179 121 274 79z m-3570 -65 c-4 -27 -3 -99 2 -161 10 -124 15
-156 32 -190 9 -19 8 -25 -3 -32 -13 -8 -12 -10 1 -10 11 0 19 -12 23 -34 4
-19 20 -66 35 -104 25 -61 27 -69 11 -65 -11 3 -24 26 -36 66 -10 34 -23 71
-30 82 -7 11 -14 34 -16 50 -2 17 -9 35 -15 40 -25 20 -56 230 -46 313 4 35
13 61 26 73 12 10 21 19 22 19 1 0 -2 -21 -6 -47z m-27 -334 c48 -159 88 -265
136 -353 18 -34 49 -94 68 -135 20 -41 53 -99 73 -130 21 -31 51 -81 67 -111
15 -30 40 -71 56 -90 15 -19 28 -40 28 -47 0 -7 14 -28 30 -46 17 -19 30 -38
30 -42 0 -14 105 -131 170 -188 36 -32 86 -78 112 -102 26 -25 52 -45 58 -45
11 0 91 -53 118 -77 7 -7 19 -13 26 -13 6 0 29 -9 51 -20 21 -11 65 -25 97
-31 32 -7 61 -16 64 -20 3 -5 15 -9 27 -9 13 0 39 -8 59 -19 21 -10 48 -16 63
-14 14 3 58 -2 98 -10 73 -16 498 -61 572 -60 22 0 48 4 57 8 9 3 40 3 69 -2
l53 -8 -73 -50 c-40 -27 -90 -60 -112 -72 -22 -13 -79 -50 -126 -83 -48 -33
-90 -60 -94 -60 -11 0 -136 -78 -189 -119 -25 -19 -60 -40 -78 -48 -18 -7 -62
-34 -99 -59 -63 -43 -103 -67 -181 -107 l-35 -18 -105 36 c-474 164 -941 438
-1332 782 -182 161 -450 446 -450 480 0 8 8 27 19 41 10 15 26 50 35 77 9 28
23 55 31 61 8 6 47 73 87 150 40 76 103 198 141 269 38 72 88 166 112 210 102
194 189 347 219 384 8 11 12 -14 17 -105 4 -83 14 -145 31 -205z m123 -48 c-6
-5 -21 37 -29 79 -4 24 0 17 13 -20 11 -30 18 -56 16 -59z m1620 33 c-16 -14
-56 -44 -87 -68 -31 -24 -68 -56 -82 -72 -14 -16 -26 -23 -26 -15 0 13 97 111
111 111 3 0 26 16 50 35 50 40 79 48 34 9z m-1229 -172 c-12 -11 -18 7 -10 30
l8 23 4 -23 c2 -13 1 -26 -2 -30z m-29 -4 c-3 -8 -6 -5 -6 6 -1 11 2 17 5 13
3 -3 4 -12 1 -19z m1063 -23 c-13 -14 -28 -25 -34 -25 -6 0 3 11 19 25 39 31
45 32 15 0z m-1036 0 c3 -8 1 -15 -4 -15 -6 0 -10 7 -10 15 0 8 2 15 4 15 2 0
6 -7 10 -15z m-294 -45 c0 -5 -2 -10 -4 -10 -3 0 -8 5 -11 10 -3 6 -1 10 4 10
6 0 11 -4 11 -10z m280 -30 c0 -5 -4 -10 -10 -10 -5 0 -10 5 -10 10 0 6 5 10
10 10 6 0 10 -4 10 -10z m-300 -138 c-1 -16 -57 85 -63 113 -4 18 7 2 28 -38
19 -37 35 -71 35 -75z m50 107 c0 -6 11 -25 25 -41 25 -30 29 -49 10 -50 -5 0
-20 23 -32 51 -13 28 -18 51 -13 51 6 0 10 -5 10 -11z m125 -229 c4 -14 20
-46 37 -73 17 -26 45 -78 63 -117 19 -38 49 -93 68 -122 54 -85 64 -109 29
-68 -17 19 -50 73 -73 120 -23 47 -64 122 -91 168 -26 45 -48 87 -48 93 0 6
-11 24 -25 41 -14 16 -25 35 -25 41 0 18 58 -56 65 -83z m134 -24 l-1 -31 -13
30 c-8 17 -14 46 -14 65 l0 35 14 -34 c8 -18 15 -47 14 -65z m1881 -260 c0 -2
-9 -6 -20 -9 -11 -3 -18 -1 -14 4 5 9 34 13 34 5z m-81 -13 c0 -5 -30 -22 -67
-40 -78 -37 -169 -111 -203 -165 -13 -21 -27 -38 -31 -38 -11 0 3 32 31 70 19
27 20 31 6 20 -11 -8 -26 -23 -33 -32 -7 -10 -20 -18 -28 -18 -8 0 -14 -7 -14
-15 0 -7 -7 -18 -15 -23 -14 -7 -14 -13 4 -54 19 -45 19 -46 0 -41 -10 3 -19
13 -20 22 0 10 -2 11 -6 4 -3 -9 -10 -10 -21 -3 -43 24 -45 27 -33 49 7 12 16
19 22 16 5 -4 9 4 9 17 1 28 26 65 32 47 3 -8 36 14 85 54 45 37 105 78 135
91 29 12 64 28 78 34 29 13 70 15 69 5z m-234 -73 c-10 -11 -23 -20 -29 -20
-6 1 0 10 13 20 30 26 39 26 16 0z m394 -29 c-13 -37 -6 -50 16 -31 20 17 19
5 -2 -20 -10 -11 -31 -36 -48 -56 -20 -24 -58 -50 -113 -75 -132 -62 -151 -51
-42 26 38 28 70 53 70 58 0 19 -34 3 -74 -33 -24 -22 -52 -40 -62 -41 -12 0
-14 -3 -6 -6 21 -8 -17 -43 -47 -43 -70 1 -61 39 22 94 28 19 66 47 82 63 17
15 46 36 65 45 37 19 143 57 148 53 1 -1 -3 -16 -9 -34z m18 -153 c-3 -8 -6
-5 -6 6 -1 11 2 17 5 13 3 -3 4 -12 1 -19z m-16 -81 c-7 -7 -9 -1 -6 19 5 40
7 43 12 15 3 -13 0 -28 -6 -34z m-626 5 c-3 -3 -11 0 -18 7 -9 10 -8 11 6 5
10 -3 15 -9 12 -12z m235 -27 c-7 -8 -17 -12 -22 -9 -6 4 -5 10 3 15 22 14 33
10 19 -6z m59 -8 c13 -16 5 -27 -21 -27 -18 0 -25 20 -11 33 10 10 19 8 32 -6z
m281 -7 c0 -5 -5 -10 -11 -10 -5 0 -7 5 -4 10 3 6 8 10 11 10 2 0 4 -4 4 -10z
m-50 -10 c-8 -5 -19 -10 -25 -10 -5 0 -3 5 5 10 8 5 20 10 25 10 6 0 3 -5 -5
-10z m-83 -16 c-3 -3 -12 -4 -19 -1 -8 3 -5 6 6 6 11 1 17 -2 13 -5z m-612
-64 c3 -5 1 -10 -4 -10 -6 0 -11 5 -11 10 0 6 2 10 4 10 3 0 8 -4 11 -10z"/>
<path d="M4739 8498 c-47 -9 -75 -27 -88 -55 -18 -40 -13 -51 39 -89 39 -28
52 -45 61 -77 15 -53 6 -595 -11 -649 -7 -24 -27 -51 -55 -75 -56 -47 -61 -87
-16 -126 46 -39 119 -52 286 -51 207 0 275 23 275 93 0 22 -11 38 -47 68 l-47
40 -4 115 c-3 76 0 122 7 136 23 43 111 19 142 -39 5 -11 26 -77 45 -147 19
-69 46 -146 60 -170 53 -91 150 -129 300 -119 44 3 99 13 122 23 96 38 111
132 26 158 -37 11 -52 39 -69 130 -17 96 -44 163 -77 193 -11 10 -45 32 -76
48 -79 43 -79 46 4 104 92 65 124 215 69 326 -35 73 -109 126 -215 155 -48 14
-671 21 -731 8z m521 -187 c49 -35 63 -158 25 -231 -27 -52 -133 -82 -154 -42
-10 20 0 250 13 270 21 34 71 35 116 3z"/>
<path d="M3930 8302 c-142 -62 -260 -156 -260 -207 0 -44 33 -65 99 -65 54 0
62 -3 85 -31 31 -36 129 -200 207 -344 48 -90 54 -106 54 -162 0 -52 -4 -68
-30 -105 -40 -56 -112 -104 -178 -118 -42 -8 -62 -7 -105 5 -82 25 -123 73
-227 270 -130 246 -133 256 -95 305 26 33 25 80 -1 109 -19 20 -29 23 -68 18
-62 -6 -139 -37 -245 -98 -167 -95 -216 -143 -216 -208 0 -37 29 -62 87 -72
65 -12 89 -42 188 -230 163 -310 220 -375 364 -409 188 -44 476 66 640 245 67
74 96 126 117 205 29 115 9 185 -130 434 -105 189 -156 291 -156 311 0 8 12
38 26 66 l27 50 -20 27 c-28 38 -80 40 -163 4z"/>
<path d="M6422 8277 c-27 -29 -27 -38 -2 -87 40 -78 29 -108 -165 -445 -130
-228 -147 -247 -230 -260 -103 -18 -100 -101 9 -189 106 -88 340 -195 390
-180 54 16 70 63 41 114 -8 14 -14 37 -15 51 0 25 75 187 103 222 39 48 117
-13 117 -92 0 -16 -13 -85 -30 -153 -46 -187 -39 -248 36 -328 49 -52 152
-112 226 -130 121 -31 200 42 133 122 -29 34 -31 61 -10 112 27 65 47 169 40
213 -3 25 -23 68 -47 103 -46 69 -41 90 20 90 101 0 207 80 236 180 34 114 7
201 -93 301 -58 58 -88 77 -247 157 -99 50 -213 111 -252 137 -139 89 -217
108 -260 62z m457 -366 c24 -23 31 -37 31 -68 0 -76 -73 -183 -135 -199 -36
-9 -115 30 -115 57 0 20 92 179 128 222 22 25 56 21 91 -12z"/>
<path d="M2465 7231 c-67 -42 -163 -176 -222 -311 -38 -86 -42 -136 -13 -172
27 -35 51 -39 100 -17 23 11 48 19 55 19 24 0 176 -83 185 -101 11 -19 -16
-77 -83 -182 -46 -71 -66 -73 -154 -16 -75 49 -93 72 -93 117 0 87 -64 126
-136 81 -56 -34 -144 -168 -193 -293 -38 -95 -45 -147 -27 -191 20 -47 50 -53
111 -21 31 17 56 24 69 20 29 -9 332 -185 433 -251 46 -30 99 -69 118 -87 32
-30 35 -38 35 -89 0 -49 3 -59 25 -73 73 -47 192 65 295 276 63 132 63 214 0
240 -22 9 -35 8 -65 -4 -54 -23 -75 -20 -152 20 -97 49 -127 79 -119 116 12
62 113 218 141 218 22 0 158 -95 193 -134 23 -26 32 -46 32 -72 0 -45 37 -84
80 -84 62 0 183 151 257 320 47 108 45 168 -9 196 -27 14 -33 14 -74 -6 -30
-15 -53 -20 -72 -15 -37 9 -185 93 -377 215 -194 123 -215 142 -215 189 0 57
-10 81 -41 96 -36 19 -48 19 -84 -4z"/>
<path d="M7690 7104 c-198 -42 -370 -199 -431 -394 -26 -83 -28 -219 -4 -310
40 -153 144 -298 280 -389 113 -75 185 -96 330 -96 108 1 127 4 185 28 217 91
364 314 364 552 0 143 -51 277 -152 397 -149 179 -361 258 -572 212z m361
-315 c57 -40 64 -141 15 -236 -57 -113 -200 -264 -297 -314 -46 -23 -109 -25
-150 -3 -41 21 -73 93 -64 143 14 80 115 231 222 332 109 104 200 130 274 78z"/>
<path d="M8412 5689 c-156 -31 -260 -164 -321 -411 -31 -129 -49 -165 -85
-174 -85 -21 -135 138 -86 268 15 42 38 70 105 133 71 67 85 86 85 111 0 18
-8 38 -20 49 -40 36 -205 -2 -293 -69 -51 -39 -72 -94 -88 -234 -30 -272 59
-525 222 -627 131 -83 312 -65 410 42 66 72 88 132 139 378 9 44 21 68 45 92
39 39 64 41 101 10 20 -18 28 -35 31 -74 7 -68 -8 -109 -80 -215 -71 -106 -78
-142 -34 -186 55 -55 168 -27 261 64 57 56 64 83 42 146 -9 27 -15 52 -12 57
16 25 26 192 16 254 -40 254 -236 427 -438 386z"/>
<path d="M1892 5618 c-65 -10 -143 -48 -172 -85 -18 -23 -21 -36 -16 -74 5
-38 1 -57 -25 -112 -44 -95 -59 -160 -59 -261 0 -172 59 -315 180 -436 117
-118 237 -170 390 -170 149 0 290 60 400 170 117 117 175 265 174 440 -1 94
-5 117 -37 212 -20 59 -37 116 -37 127 0 32 -46 78 -112 110 -77 39 -129 41
-163 6 -32 -31 -31 -42 4 -91 63 -85 83 -226 47 -331 -67 -198 -405 -302 -568
-174 -38 30 -62 100 -55 156 14 100 73 175 184 237 90 49 113 77 113 133 0
108 -100 166 -248 143z"/>
<path d="M4835 6293 c-11 -3 -24 -10 -30 -15 -7 -8 -4 -9 8 -4 10 3 27 6 38 6
10 0 19 5 19 10 0 10 -3 11 -35 3z"/>
<path d="M5214 6180 c-41 -8 -144 -55 -183 -82 -39 -28 -150 -137 -198 -196
-43 -53 -123 -170 -149 -217 -6 -11 -16 -29 -22 -40 -27 -44 -107 -248 -154
-390 -28 -82 -53 -157 -57 -165 -4 -8 -8 -37 -10 -65 -1 -27 -4 -58 -7 -67 -3
-10 -1 -18 5 -18 6 0 11 14 11 30 0 30 31 157 49 202 5 12 19 56 31 97 16 55
24 71 31 60 7 -10 8 -6 3 14 -4 16 -2 27 5 27 5 0 15 19 22 43 11 44 19 63 68
167 62 132 166 281 273 390 71 72 155 140 174 140 5 0 23 7 39 16 30 17 132
41 212 51 42 5 88 -5 151 -34 19 -8 36 -13 38 -10 3 2 -19 15 -48 27 -41 18
-75 24 -148 26 -52 2 -113 -1 -136 -6z"/>
<path d="M5325 6120 c-14 -6 3 -9 60 -11 44 -1 91 -1 103 0 16 1 21 -2 17 -10
-6 -8 1 -9 25 -4 37 8 81 -10 73 -30 -2 -8 6 -16 19 -20 36 -11 198 -148 198
-168 0 -4 -13 -1 -30 8 -17 9 -84 20 -159 27 -124 11 -131 10 -192 -12 -75
-27 -109 -46 -109 -62 0 -6 9 -3 19 6 11 10 24 15 30 12 6 -4 29 5 52 20 36
22 53 26 113 26 60 -1 111 -6 111 -12 0 -1 20 -4 44 -6 25 -3 53 -10 63 -15
10 -6 23 -7 28 -4 6 4 9 1 8 -5 -2 -7 11 -17 28 -24 49 -17 119 -88 132 -132
6 -22 18 -59 27 -83 9 -24 15 -66 14 -92 -2 -27 0 -52 4 -55 4 -4 1 -14 -6
-22 -9 -13 -9 -14 1 -8 18 11 16 -70 -3 -124 -17 -48 -19 -69 -6 -55 31 35 39
192 17 322 -19 104 -57 184 -115 243 -46 47 -103 115 -109 131 -2 5 -10 9 -18
9 -14 0 -18 12 -15 38 2 15 -16 16 -21 2 -2 -6 -11 -4 -23 5 -16 14 -17 16 -3
11 15 -4 16 -3 6 14 -9 14 -15 16 -26 8 -9 -8 -16 -8 -25 1 -9 10 -8 11 8 6
20 -7 20 -6 1 9 -11 9 -24 16 -28 16 -5 0 -21 8 -35 18 -15 9 -39 18 -53 19
-128 10 -208 11 -225 3z"/>
<path d="M5268 6103 c7 -3 16 -2 19 1 4 3 -2 6 -13 5 -11 0 -14 -3 -6 -6z"/>
<path d="M5177 6075 c-79 -41 -128 -78 -209 -161 -104 -107 -128 -135 -128
-148 1 -6 10 0 21 14 114 139 220 233 324 285 38 19 62 35 54 35 -8 0 -36 -12
-62 -25z"/>
<path d="M5545 6080 c3 -5 11 -10 16 -10 6 0 7 5 4 10 -3 6 -11 10 -16 10 -6
0 -7 -4 -4 -10z"/>
<path d="M5360 6075 c0 -1 6 -8 14 -14 10 -8 16 -8 25 3 9 11 7 14 -14 14 -14
0 -25 -2 -25 -3z"/>
<path d="M5823 6074 c-7 -3 -13 -15 -13 -27 1 -20 2 -21 14 -4 8 10 27 17 48
17 39 0 67 -25 113 -104 26 -45 48 -60 25 -17 -6 12 -8 26 -5 31 9 15 -84 100
-109 100 -12 0 -30 2 -41 5 -11 2 -26 2 -32 -1z m161 -80 c3 -8 2 -12 -4 -9
-6 3 -10 10 -10 16 0 14 7 11 14 -7z"/>
<path d="M5271 6039 c-13 -5 -37 -20 -55 -34 -17 -14 -47 -37 -66 -52 -19 -16
-46 -41 -60 -57 -14 -16 -38 -43 -54 -60 -26 -28 -81 -117 -161 -256 -37 -65
-69 -154 -85 -230 -6 -30 -15 -77 -21 -105 -20 -102 -26 -204 -22 -350 14
-504 1 -602 -104 -797 -60 -112 -111 -176 -205 -259 -45 -41 -94 -86 -109
-101 -15 -16 -30 -28 -33 -28 -12 0 -91 -94 -88 -104 2 -6 0 -8 -4 -3 -12 11
-43 -23 -37 -41 4 -9 2 -13 -4 -9 -6 4 -16 0 -23 -8 -7 -8 -9 -15 -4 -15 5 0
1 -5 -8 -10 -18 -11 -48 -65 -48 -86 0 -20 38 14 57 51 29 54 170 197 226 228
17 9 27 17 22 17 -5 0 1 11 15 24 51 50 166 174 189 205 39 53 120 221 146
302 41 129 47 211 35 465 -17 333 -15 368 25 577 20 103 72 229 148 359 12 20
36 60 53 90 53 90 238 262 314 291 13 5 13 5 0 6 -8 0 -26 -5 -39 -10z"/>
<path d="M5895 6006 c17 -13 32 -22 35 -19 6 5 -41 42 -55 43 -5 0 4 -11 20
-24z"/>
<path d="M5573 6003 c9 -2 23 -2 30 0 6 3 -1 5 -18 5 -16 0 -22 -2 -12 -5z"/>
<path d="M5375 5988 c-16 -6 -37 -17 -46 -24 -8 -8 -20 -14 -25 -14 -30 0
-234 -192 -234 -220 0 -8 -7 -26 -16 -38 -9 -13 -14 -25 -12 -28 5 -5 58 74
58 86 0 4 40 46 89 92 83 78 177 138 214 138 10 0 17 5 17 10 0 12 -6 12 -45
-2z"/>
<path d="M5448 5993 c6 -2 18 -2 25 0 6 3 1 5 -13 5 -14 0 -19 -2 -12 -5z"/>
<path d="M5945 5960 c3 -5 11 -10 16 -10 6 0 7 5 4 10 -3 6 -11 10 -16 10 -6
0 -7 -4 -4 -10z"/>
<path d="M5980 5900 c0 -5 5 -10 11 -10 5 0 7 5 4 10 -3 6 -8 10 -11 10 -2 0
-4 -4 -4 -10z"/>
<path d="M6035 5877 c10 -15 20 -25 23 -22 3 3 -5 16 -17 28 l-23 22 17 -28z"/>
<path d="M5930 5883 c0 -5 11 -20 25 -33 14 -13 25 -21 25 -17 0 3 -11 18 -25
33 -14 15 -25 23 -25 17z"/>
<path d="M5506 5805 c-14 -18 -25 -24 -39 -19 -13 4 -17 2 -13 -5 4 -6 1 -11
-6 -11 -7 0 -24 -16 -38 -34 -16 -22 -28 -30 -33 -23 -4 8 -9 5 -13 -9 -3 -12
-18 -28 -32 -35 -37 -19 -69 -53 -114 -123 -24 -37 -36 -66 -32 -78 3 -12 1
-16 -8 -13 -8 3 -24 -18 -43 -58 -41 -84 -40 -84 -22 -68 10 7 17 19 17 25 0
6 10 22 21 36 26 32 69 98 69 105 0 4 -4 3 -10 0 -5 -3 -10 -1 -10 4 0 6 5 11
10 11 6 0 10 6 10 14 0 7 7 19 15 26 9 8 15 9 15 2 0 -6 -4 -14 -10 -17 -5 -3
-10 -11 -10 -17 0 -6 9 1 20 15 22 27 26 42 10 32 -26 -16 -6 16 28 45 20 17
55 48 77 67 22 20 50 40 63 46 12 6 22 16 22 23 0 7 10 16 22 20 13 4 27 13
33 21 14 18 115 27 165 13 44 -12 63 -24 122 -81 40 -39 54 -34 16 5 -68 68
-153 106 -238 106 -37 0 -49 -5 -64 -25z"/>
<path d="M5247 5766 c-26 -30 -47 -58 -47 -62 0 -4 -11 -21 -24 -38 -19 -25
-100 -185 -137 -271 -14 -33 -38 -125 -58 -225 -14 -72 -19 -142 -21 -289 0
-107 -3 -198 -6 -202 -2 -4 0 -38 6 -75 8 -49 8 -70 -1 -80 -8 -10 -8 -14 0
-14 7 0 9 -20 5 -59 -3 -33 -6 -99 -8 -149 -2 -49 -6 -94 -9 -99 -3 -5 -9 -24
-12 -42 -4 -24 -2 -32 7 -29 17 6 36 72 37 125 1 42 15 65 24 41 4 -8 6 -7 6
4 1 9 4 25 7 35 5 16 4 16 -10 -1 -16 -20 -16 -19 -16 1 0 12 -6 23 -12 25
-10 4 -10 11 0 34 14 30 18 295 6 362 -8 44 6 243 16 237 5 -3 11 -1 15 5 3 5
-1 10 -9 10 -14 0 -16 13 -12 93 4 94 11 126 30 139 8 6 8 8 0 8 -12 0 -7 57
6 65 5 3 6 -5 2 -17 -3 -13 -1 -19 5 -15 6 4 13 22 16 41 3 19 19 64 36 101
17 37 28 71 25 76 -6 10 39 107 76 164 11 17 26 42 34 56 13 23 56 59 71 59 3
0 0 -10 -6 -22 -10 -20 -7 -19 20 6 29 28 36 51 8 28 -18 -15 -30 -3 -16 15 6
7 7 13 2 13 -5 0 -30 -24 -56 -54z m-200 -418 c-3 -8 -6 -5 -6 6 -1 11 2 17 5
13 3 -3 4 -12 1 -19z"/>
<path d="M5990 5816 c0 -2 18 -40 40 -83 37 -71 55 -146 52 -213 -3 -73 -10
-158 -14 -170 -3 -8 -15 -49 -26 -90 -11 -41 -24 -84 -28 -95 -5 -15 -4 -17 5
-9 6 6 19 37 28 70 9 32 23 65 29 71 15 15 24 88 26 198 2 98 -7 145 -39 210
-14 28 -32 65 -41 83 -14 27 -32 43 -32 28z"/>
<path d="M6050 5790 c0 -5 5 -10 10 -10 6 0 10 5 10 10 0 6 -4 10 -10 10 -5 0
-10 -4 -10 -10z"/>
<path d="M4806 5715 c-9 -14 -13 -25 -9 -25 10 0 36 40 30 46 -2 3 -12 -7 -21
-21z"/>
<path d="M5260 5715 c0 -8 2 -15 4 -15 2 0 6 7 10 15 3 8 1 15 -4 15 -6 0 -10
-7 -10 -15z"/>
<path d="M5224 5676 c-10 -8 -16 -17 -13 -20 3 -3 14 3 24 14 21 23 17 26 -11
6z"/>
<path d="M5010 5669 c0 -7 -16 -34 -36 -61 -34 -47 -40 -65 -19 -50 12 9 59
81 68 105 3 9 2 17 -3 17 -6 0 -10 -5 -10 -11z"/>
<path d="M5178 5613 c-18 -20 -48 -78 -48 -90 1 -4 8 6 17 22 8 17 25 40 36
52 11 13 18 25 15 28 -2 3 -12 -3 -20 -12z"/>
<path d="M5289 5593 c-13 -16 -12 -17 4 -4 9 7 17 15 17 17 0 8 -8 3 -21 -13z"/>
<path d="M4715 5559 c-4 -6 -5 -12 -2 -15 2 -3 7 2 10 11 7 17 1 20 -8 4z"/>
<path d="M4726 5519 c-10 -17 -16 -33 -13 -36 3 -3 13 9 22 27 21 41 14 48 -9
9z"/>
<path d="M4914 5478 c-4 -13 -7 -26 -6 -30 1 -5 -2 -8 -7 -8 -4 0 -11 -15 -15
-32 -3 -18 -13 -58 -22 -88 -38 -132 -54 -235 -53 -347 0 -62 5 -115 10 -119
5 -3 9 19 9 48 1 128 9 279 17 290 8 13 27 81 60 213 9 39 21 73 26 76 5 4 5
9 -1 13 -6 3 -14 -4 -18 -16z"/>
<path d="M4679 5438 c-6 -18 -13 -35 -14 -38 -1 -3 -7 -18 -14 -34 -6 -16 -10
-30 -8 -33 3 -3 31 53 65 130 2 4 -1 7 -6 7 -6 0 -16 -15 -23 -32z"/>
<path d="M5176 5385 c-11 -8 -16 -15 -12 -15 4 0 -7 -21 -25 -46 -19 -28 -28
-49 -22 -55 6 -6 23 17 44 61 20 38 35 70 35 70 -1 0 -10 -7 -20 -15z"/>
<path d="M5090 5289 c-7 -11 -10 -23 -7 -25 2 -2 9 7 15 21 14 30 7 33 -8 4z"/>
<path d="M4626 5279 c-2 -8 -9 -36 -16 -64 -7 -27 -14 -59 -17 -70 -4 -14 -2
-17 6 -10 11 11 43 147 36 154 -3 2 -6 -2 -9 -10z"/>
<path d="M5946 5181 c-29 -65 -30 -71 -16 -71 6 0 10 8 10 18 0 10 3 22 7 26
8 8 33 79 29 83 -2 2 -15 -23 -30 -56z"/>
<path d="M5486 5195 c-11 -8 -15 -15 -9 -15 6 0 16 7 23 15 16 19 11 19 -14 0z"/>
<path d="M5805 5168 c-20 -35 -108 -130 -265 -288 -52 -52 -87 -89 -77 -81 9
7 17 11 17 8 0 -6 15 8 121 109 91 88 153 155 191 211 46 65 50 73 41 73 -5 0
-17 -15 -28 -32z"/>
<path d="M5010 5170 c0 -11 4 -20 8 -20 4 0 8 9 8 20 0 11 -4 20 -8 20 -4 0
-8 -9 -8 -20z"/>
<path d="M5976 5088 l-18 -33 21 25 c18 22 26 40 18 40 -1 0 -11 -15 -21 -32z"/>
<path d="M4603 5098 c-4 -7 -8 -168 -9 -358 l-1 -345 -33 -100 c-28 -86 -39
-107 -85 -155 -29 -30 -68 -72 -86 -93 -63 -71 -138 -145 -156 -155 -10 -6
-18 -19 -18 -29 0 -12 -6 -17 -19 -15 -16 3 -20 -16 -5 -21 3 -1 50 41 105 93
54 52 91 88 82 81 -13 -9 -18 -10 -18 -2 0 6 8 14 18 17 33 10 47 22 44 36 -3
19 69 86 87 80 10 -3 12 0 7 13 -5 13 -2 16 9 11 10 -3 13 -2 10 5 -4 5 -2 15
3 22 5 7 25 55 43 107 l33 95 0 362 c1 200 0 363 -1 363 -1 0 -5 -6 -10 -12z"/>
<path d="M5011 5097 c-11 -15 -10 -64 2 -59 9 3 9 4 1 26 -4 11 -2 21 7 26 7
5 11 12 8 15 -4 3 -11 -1 -18 -8z"/>
<path d="M4486 5038 c-8 -31 -8 -43 1 -34 8 8 16 56 10 56 -3 0 -7 -10 -11
-22z"/>
<path d="M5876 5028 l-17 -33 20 24 c18 20 27 41 18 41 -1 0 -11 -15 -21 -32z"/>
<path d="M5940 5030 c-6 -11 -8 -20 -6 -20 3 0 10 9 16 20 6 11 8 20 6 20 -3
0 -10 -9 -16 -20z"/>
<path d="M5952 5003 c-12 -19 -21 -37 -19 -39 2 -3 16 14 31 36 14 22 23 40
19 40 -5 -1 -18 -17 -31 -37z"/>
<path d="M6096 5025 c-9 -26 -7 -32 5 -12 6 10 9 21 6 23 -2 3 -7 -2 -11 -11z"/>
<path d="M5829 4954 c-13 -21 -32 -50 -42 -66 -11 -15 -17 -28 -14 -28 8 0 89
121 84 126 -2 3 -15 -12 -28 -32z"/>
<path d="M6075 4979 c-4 -6 -5 -12 -2 -15 2 -3 7 2 10 11 7 17 1 20 -8 4z"/>
<path d="M5889 4953 c-13 -16 -12 -17 4 -4 16 13 21 21 13 21 -2 0 -10 -8 -17
-17z"/>
<path d="M5906 4935 c-3 -9 -10 -14 -15 -11 -5 3 -30 -18 -55 -47 -25 -28 -50
-56 -54 -60 -4 -5 -34 -33 -67 -64 -47 -43 -51 -49 -19 -26 90 62 150 114 184
159 8 11 21 27 29 37 8 10 12 20 9 23 -3 3 -8 -2 -12 -11z"/>
<path d="M4431 4914 c0 -11 3 -14 6 -6 3 7 2 16 -1 19 -3 4 -6 -2 -5 -13z"/>
<path d="M4456 4905 c-3 -8 -1 -15 3 -15 5 0 11 7 15 15 3 8 1 15 -3 15 -5 0
-11 -7 -15 -15z"/>
<path d="M5510 4802 c-52 -43 -122 -94 -155 -114 -33 -20 -73 -50 -89 -67 -31
-33 -29 -43 2 -13 34 32 61 51 94 68 53 27 269 205 247 204 -2 0 -47 -36 -99
-78z"/>
<path d="M4430 4849 c11 -8 12 -12 3 -16 -15 -6 -19 -228 -4 -237 5 -3 5 -25
0 -48 -4 -24 -8 -50 -8 -58 0 -13 1 -13 8 0 15 25 25 160 12 160 -6 0 -11 5
-11 11 0 5 4 7 10 4 11 -7 24 38 17 57 -3 7 -6 1 -6 -14 -1 -16 -5 -28 -11
-28 -15 0 -8 53 10 68 8 8 10 11 4 8 -7 -3 -14 7 -18 26 -4 23 -2 34 11 44 16
12 16 15 3 24 -20 13 -39 13 -20 -1z"/>
<path d="M5003 4812 l-1 -47 9 39 c5 22 6 43 1 48 -4 4 -8 -14 -9 -40z"/>
<path d="M4818 4834 c-4 -3 -3 -18 1 -32 4 -15 7 -47 5 -72 -1 -25 2 -54 7
-65 5 -12 8 17 8 78 1 87 -4 109 -21 91z"/>
<path d="M4445 4790 c3 -5 8 -10 11 -10 2 0 4 5 4 10 0 6 -5 10 -11 10 -5 0
-7 -4 -4 -10z"/>
<path d="M5669 4770 c-1 -3 -1 -8 0 -12 4 -26 -313 -185 -424 -212 -28 -7 -44
-21 -45 -38 0 -4 15 0 33 10 60 34 237 105 244 99 3 -4 -5 -11 -18 -16 -13 -5
-17 -10 -9 -10 8 0 24 6 34 14 11 8 16 15 10 15 -12 0 94 59 121 67 11 3 37
25 58 49 33 37 36 43 18 41 -12 -1 -22 -4 -22 -7z"/>
<path d="M5007 4623 c3 -76 7 -140 9 -142 2 -2 4 59 4 137 0 79 -4 142 -9 142
-6 0 -7 -57 -4 -137z"/>
<path d="M5361 4725 c-13 -14 -19 -25 -14 -25 5 0 20 11 33 25 13 14 19 25 14
25 -5 0 -20 -12 -33 -25z"/>
<path d="M5259 4693 c-13 -17 -13 -17 6 -3 11 8 22 16 24 17 2 2 0 3 -6 3 -6
0 -17 -8 -24 -17z"/>
<path d="M5240 4640 c0 -5 5 -10 10 -10 6 0 10 5 10 10 0 6 -4 10 -10 10 -5 0
-10 -4 -10 -10z"/>
<path d="M5586 4635 c-11 -8 -15 -15 -10 -15 6 0 19 7 30 15 10 8 15 14 9 14
-5 0 -19 -6 -29 -14z"/>
<path d="M4821 4614 c0 -11 3 -14 6 -6 3 7 2 16 -1 19 -3 4 -6 -2 -5 -13z"/>
<path d="M4501 4520 c-3 -51 -48 -185 -60 -182 -7 1 -10 -1 -7 -6 3 -5 -4 -25
-14 -45 -22 -41 -25 -51 -10 -42 6 3 7 -1 4 -9 -3 -9 -10 -13 -15 -10 -5 3
-12 -3 -16 -13 -7 -21 -57 -87 -91 -123 -14 -14 -32 -42 -41 -62 -10 -20 -41
-58 -69 -84 -54 -48 -162 -183 -162 -202 0 -6 -6 -15 -13 -19 -19 -11 -87
-115 -87 -132 0 -8 8 -3 20 12 11 14 20 29 20 34 0 4 16 25 35 46 19 21 34 40
33 43 -2 13 85 123 93 118 5 -3 9 2 9 10 0 9 19 33 41 53 23 21 76 81 118 133
41 52 78 97 81 100 19 18 83 139 97 185 24 75 44 174 40 197 -4 22 -4 22 -6
-2z"/>
<path d="M5305 4520 c-3 -5 8 -7 26 -5 42 5 46 12 9 13 -16 0 -32 -3 -35 -8z"/>
<path d="M5370 4510 c-8 -5 -10 -10 -5 -10 6 0 17 5 25 10 8 5 11 10 5 10 -5
0 -17 -5 -25 -10z"/>
<path d="M4941 4384 c0 -11 3 -14 6 -6 3 7 2 16 -1 19 -3 4 -6 -2 -5 -13z"/>
<path d="M5180 4380 c0 -5 4 -10 9 -10 6 0 13 5 16 10 3 6 -1 10 -9 10 -9 0
-16 -4 -16 -10z"/>
<path d="M4931 4334 c0 -11 3 -14 6 -6 3 7 2 16 -1 19 -3 4 -6 -2 -5 -13z"/>
<path d="M4759 4283 c-5 -14 -8 -30 -6 -36 1 -5 8 7 14 27 13 42 7 49 -8 9z"/>
<path d="M4886 4211 c-4 -7 -5 -15 -2 -18 9 -9 19 4 14 18 -4 11 -6 11 -12 0z"/>
<path d="M4707 4144 c-10 -20 -16 -39 -13 -41 2 -3 14 13 26 36 11 23 17 41
13 41 -5 0 -16 -17 -26 -36z"/>
<path d="M4930 4108 c0 -39 -115 -232 -199 -337 -33 -41 -34 -43 -9 -27 15 10
42 41 59 69 17 29 35 54 38 57 12 9 77 114 95 154 26 55 36 96 25 96 -5 0 -9
-6 -9 -12z"/>
<path d="M4454 4078 l-19 -23 23 19 c21 18 27 26 19 26 -2 0 -12 -10 -23 -22z"/>
<path d="M4652 4034 c-17 -30 -27 -52 -23 -49 11 6 63 97 58 101 -2 2 -17 -21
-35 -52z"/>
<path d="M4599 3953 c-13 -16 -12 -17 4 -4 16 13 21 21 13 21 -2 0 -10 -8 -17
-17z"/>
<path d="M4570 3919 c0 -5 5 -7 10 -4 6 3 10 8 10 11 0 2 -4 4 -10 4 -5 0 -10
-5 -10 -11z"/>
<path d="M3765 3870 c-21 -40 -19 -48 5 -20 18 21 27 50 15 50 -2 0 -11 -13
-20 -30z"/>
<path d="M4474 3808 l-19 -23 23 19 c21 18 27 26 19 26 -2 0 -12 -10 -23 -22z"/>
<path d="M4140 3810 c-10 -6 -12 -12 -4 -20 7 -7 16 -5 29 10 14 15 15 20 4
20 -8 0 -21 -5 -29 -10z"/>
<path d="M3697 3773 c-4 -3 -7 -16 -6 -27 0 -19 1 -19 10 3 10 24 8 36 -4 24z"/>
<path d="M4110 3770 c0 -6 -8 -14 -17 -17 -42 -16 -185 -219 -199 -281 -3 -15
-13 -43 -21 -62 -11 -24 -13 -35 -4 -38 6 -2 11 -8 11 -13 0 -6 -5 -7 -11 -3
-9 5 -10 -1 -5 -22 4 -19 3 -24 -2 -15 -7 9 -11 5 -14 -18 -4 -30 6 -43 15
-18 2 6 2 -19 0 -58 -6 -95 12 -64 21 35 7 85 33 193 63 261 29 65 103 171
147 209 36 32 45 50 26 50 -5 0 -10 -5 -10 -10z"/>
<path d="M3613 3659 c-7 -18 -11 -35 -8 -37 6 -6 27 48 23 60 -2 5 -9 -6 -15
-23z"/>
<path d="M3591 3584 c0 -11 3 -14 6 -6 3 7 2 16 -1 19 -3 4 -6 -2 -5 -13z"/>
<path d="M3580 3532 c0 -17 -4 -42 -10 -56 -5 -15 -5 -28 0 -31 10 -6 26 103
16 112 -3 4 -6 -8 -6 -25z"/>
<path d="M4272 3453 c-2 -22 0 -24 13 -13 18 15 19 26 2 33 -8 3 -14 -4 -15
-20z"/>
<path d="M3612 3425 c0 -16 2 -22 5 -12 2 9 2 23 0 30 -3 6 -5 -1 -5 -18z"/>
<path d="M3555 3393 c-12 -32 -8 -83 6 -83 5 0 9 18 9 39 0 22 3 46 6 55 3 9
2 16 -3 16 -5 0 -13 -12 -18 -27z"/>
<path d="M4064 3396 c-10 -8 -16 -18 -11 -22 4 -4 7 -2 7 4 0 7 4 12 10 12 6
0 5 -10 -2 -25 -6 -13 -14 -22 -18 -20 -5 3 -11 -3 -15 -12 -3 -10 -1 -19 4
-21 7 -2 5 -10 -4 -19 -18 -17 -20 -89 -3 -99 8 -5 9 0 6 14 -4 12 -2 20 3 16
5 -3 9 11 9 30 0 50 17 89 35 82 9 -3 15 0 15 10 0 9 -5 12 -11 8 -8 -4 -9 3
-4 25 8 35 6 36 -21 17z"/>
<path d="M3601 3320 c-4 -64 0 -284 5 -289 8 -9 9 8 4 169 -4 91 -7 145 -9
120z"/>
<path d="M4191 3314 c0 -11 3 -14 6 -6 3 7 2 16 -1 19 -3 4 -6 -2 -5 -13z"/>
<path d="M3553 3230 c0 -41 2 -58 4 -37 2 20 2 54 0 75 -2 20 -4 3 -4 -38z"/>
<path d="M4174 3276 c-3 -8 -4 -23 -2 -33 3 -11 6 -6 9 15 6 34 2 42 -7 18z"/>
<path d="M3841 3214 c0 -11 3 -14 6 -6 3 7 2 16 -1 19 -3 4 -6 -2 -5 -13z"/>
<path d="M3833 3115 c0 -44 2 -61 4 -37 2 23 2 59 0 80 -2 20 -4 1 -4 -43z"/>
<path d="M4017 3163 c-9 -15 -6 -93 4 -93 5 0 9 6 10 13 5 61 5 87 -2 87 -4 0
-10 -3 -12 -7z"/>
<path d="M3854 2997 c3 -86 8 -173 11 -194 11 -69 27 -123 37 -123 6 0 7 8 2
18 -13 29 -31 166 -24 177 4 6 6 19 4 30 -2 11 -5 69 -7 129 -3 71 -8 111 -15
114 -9 3 -11 -38 -8 -151z"/>
<path d="M3551 3124 c0 -11 3 -14 6 -6 3 7 2 16 -1 19 -3 4 -6 -2 -5 -13z"/>
<path d="M3793 3065 c0 -44 2 -61 4 -37 2 23 2 59 0 80 -2 20 -4 1 -4 -43z"/>
<path d="M4061 3124 c0 -11 3 -14 6 -6 3 7 2 16 -1 19 -3 4 -6 -2 -5 -13z"/>
<path d="M3552 3034 c1 -39 6 -84 13 -100 13 -29 13 -29 8 11 -2 22 -8 67 -13
100 l-8 60 0 -71z"/>
<path d="M4061 3064 c0 -11 3 -14 6 -6 3 7 2 16 -1 19 -3 4 -6 -2 -5 -13z"/>
<path d="M4023 3053 c-19 -7 -16 -123 2 -147 8 -11 15 -34 16 -50 1 -17 5 -42
10 -56 6 -16 6 -5 2 35 -3 33 -8 96 -12 141 -4 58 -9 80 -18 77z"/>
<path d="M4061 3024 c0 -11 3 -14 6 -6 3 7 2 16 -1 19 -3 4 -6 -2 -5 -13z"/>
<path d="M3602 3000 c0 -14 2 -19 5 -12 2 6 2 18 0 25 -3 6 -5 1 -5 -13z"/>
<path d="M4152 3000 c0 -14 2 -19 5 -12 2 6 2 18 0 25 -3 6 -5 1 -5 -13z"/>
<path d="M3791 2964 c0 -11 3 -14 6 -6 3 7 2 16 -1 19 -3 4 -6 -2 -5 -13z"/>
<path d="M3831 2964 c0 -11 3 -14 6 -6 3 7 2 16 -1 19 -3 4 -6 -2 -5 -13z"/>
<path d="M3617 2895 c2 -38 7 -92 10 -120 l7 -50 7 45 c4 28 2 63 -7 95 -7 28
-15 61 -17 75 -2 14 -2 -6 0 -45z"/>
<path d="M3572 2865 c0 -16 2 -22 5 -12 2 9 2 23 0 30 -3 6 -5 -1 -5 -18z"/>
<path d="M3896 2853 c-4 -13 -3 -30 2 -39 13 -23 20 -5 12 31 -6 28 -7 29 -14
8z"/>
<path d="M3582 2805 c0 -16 2 -22 5 -12 2 9 2 23 0 30 -3 6 -5 -1 -5 -18z"/>
<path d="M3812 2790 c0 -14 2 -19 5 -12 2 6 2 18 0 25 -3 6 -5 1 -5 -13z"/>
<path d="M3911 2780 c0 -8 6 -37 13 -65 8 -27 15 -43 15 -35 0 8 -6 38 -13 65
-8 28 -15 43 -15 35z"/>
<path d="M3592 2750 c0 -14 2 -19 5 -12 2 6 2 18 0 25 -3 6 -5 1 -5 -13z"/>
<path d="M4070 2725 c0 -8 4 -15 10 -15 5 0 7 7 4 15 -4 8 -8 15 -10 15 -2 0
-4 -7 -4 -15z"/>
<path d="M3691 2714 c0 -11 3 -14 6 -6 3 7 2 16 -1 19 -3 4 -6 -2 -5 -13z"/>
<path d="M3640 2708 c0 -9 5 -29 11 -45 7 -15 13 -38 15 -51 1 -13 23 -74 48
-135 25 -62 47 -121 49 -132 13 -82 190 -252 290 -280 12 -4 0 7 -28 24 -83
50 -88 54 -152 121 -44 46 -59 67 -50 73 8 6 7 7 -4 4 -21 -7 -49 40 -31 52 8
5 6 12 -8 24 -11 9 -20 25 -20 34 0 10 -7 32 -16 48 -16 31 -38 95 -69 200
-19 62 -35 92 -35 63z"/>
<path d="M3601 2694 c0 -11 3 -14 6 -6 3 7 2 16 -1 19 -3 4 -6 -2 -5 -13z"/>
<path d="M3830 2676 c0 -8 4 -17 9 -20 5 -4 7 3 4 14 -6 23 -13 26 -13 6z"/>
<path d="M3611 2654 c0 -11 3 -14 6 -6 3 7 2 16 -1 19 -3 4 -6 -2 -5 -13z"/>
<path d="M3911 2633 c-1 -18 19 -67 25 -61 3 3 -2 21 -10 39 -8 19 -15 29 -15
22z"/>
<path d="M3952 2610 c0 -14 2 -19 5 -12 2 6 2 18 0 25 -3 6 -5 1 -5 -13z"/>
<path d="M4127 2623 c-11 -10 -8 -20 7 -26 10 -4 12 0 9 14 -6 21 -7 22 -16
12z"/>
<path d="M3851 2594 c0 -11 3 -14 6 -6 3 7 2 16 -1 19 -3 4 -6 -2 -5 -13z"/>
<path d="M3862 2559 c3 -8 14 -34 24 -59 19 -48 45 -93 50 -87 2 1 -10 29 -26
61 -17 32 -30 65 -30 72 0 7 -5 16 -12 20 -7 5 -9 2 -6 -7z"/>
<path d="M4150 2557 c0 -5 5 -17 11 -29 6 -11 8 -22 6 -25 -3 -3 -12 8 -21 24
-14 26 -15 26 -16 6 0 -13 10 -29 26 -39 31 -21 88 -101 89 -128 3 -33 163
-172 233 -201 17 -8 32 -19 32 -24 0 -6 7 -8 15 -5 9 4 15 0 15 -10 0 -9 5
-16 11 -16 5 0 7 6 3 13 -4 6 5 1 19 -12 15 -14 27 -22 27 -18 0 3 26 -3 58
-14 31 -11 72 -22 90 -25 19 -3 52 -12 74 -20 47 -16 98 -19 98 -4 0 5 -10 12
-22 14 -13 3 -70 14 -127 25 -99 20 -190 55 -271 106 -19 12 -47 26 -62 31
-31 10 -188 150 -188 167 0 6 19 -7 42 -28 29 -27 35 -30 18 -10 -14 16 -30
34 -36 40 -10 9 -43 59 -102 155 -12 19 -22 31 -22 27z"/>
<path d="M3640 2531 c0 -5 7 -14 15 -21 8 -7 15 -20 15 -29 1 -9 10 -32 21
-51 22 -37 19 -26 -13 58 -17 45 -38 69 -38 43z"/>
<path d="M4270 2450 c0 -5 5 -10 11 -10 5 0 7 5 4 10 -3 6 -8 10 -11 10 -2 0
-4 -4 -4 -10z"/>
<path d="M4055 2420 c3 -5 8 -10 11 -10 2 0 4 5 4 10 0 6 -5 10 -11 10 -5 0
-7 -4 -4 -10z"/>
<path d="M4300 2411 c5 -11 15 -23 21 -27 6 -3 3 5 -6 20 -20 30 -30 35 -15 7z"/>
<path d="M3720 2381 c0 -6 4 -13 10 -16 6 -3 7 1 4 9 -7 18 -14 21 -14 7z"/>
<path d="M3955 2370 c3 -5 8 -10 11 -10 2 0 4 5 4 10 0 6 -5 10 -11 10 -5 0
-7 -4 -4 -10z"/>
<path d="M4340 2362 c0 -12 19 -26 26 -19 2 2 -2 10 -11 17 -9 8 -15 8 -15 2z"/>
<path d="M3980 2343 c0 -14 61 -90 78 -97 10 -4 10 -1 2 14 -6 11 -15 20 -20
20 -5 0 -21 17 -35 37 -14 21 -25 33 -25 26z"/>
<path d="M3810 2330 c0 -5 9 -14 20 -20 23 -12 26 -5 6 16 -17 16 -26 18 -26
4z"/>
<path d="M4375 2276 c17 -14 35 -25 40 -25 11 0 -20 25 -50 41 -11 5 -6 -2 10
-16z"/>
<path d="M3865 2265 c17 -30 102 -106 127 -113 7 -3 -7 13 -32 34 -25 22 -60
55 -79 74 -33 34 -33 34 -16 5z"/>
<path d="M4430 2235 c0 -5 55 -35 65 -35 15 0 2 16 -22 28 -28 13 -43 15 -43
7z"/>
<path d="M4080 2226 c0 -2 8 -10 18 -17 15 -13 16 -12 3 4 -13 16 -21 21 -21
13z"/>
<path d="M4510 2191 c0 -9 99 -55 106 -49 2 2 -21 16 -51 31 -30 15 -55 23
-55 18z"/>
<path d="M4630 2137 c0 -3 15 -10 32 -16 18 -6 28 -7 23 -2 -12 10 -55 25 -55
18z"/>
<path d="M4045 2120 c3 -5 11 -10 16 -10 6 0 7 5 4 10 -3 6 -11 10 -16 10 -6
0 -7 -4 -4 -10z"/>
<path d="M4100 2095 c14 -8 30 -14 35 -14 6 0 -1 6 -15 14 -14 8 -29 14 -35
14 -5 0 1 -6 15 -14z"/>
<path d="M4155 2060 c-4 -6 9 -10 32 -10 28 0 34 3 23 10 -20 13 -47 13 -55 0z"/>
<path d="M4263 2043 c9 -2 17 -11 17 -19 0 -16 -16 -19 -25 -4 -3 6 -16 10
-28 10 -21 -1 -21 -1 3 -15 14 -8 43 -14 65 -14 34 1 36 2 15 9 l-25 7 25 11
c16 7 19 11 9 11 -9 1 -29 3 -45 5 -16 2 -21 1 -11 -1z"/>
<path d="M4178 2023 c7 -3 16 -2 19 1 4 3 -2 6 -13 5 -11 0 -14 -3 -6 -6z"/>
<path d="M4398 2023 c7 -3 16 -2 19 1 4 3 -2 6 -13 5 -11 0 -14 -3 -6 -6z"/>
<path d="M4465 1985 c25 -8 115 -11 115 -4 0 5 -28 9 -62 8 -35 0 -58 -2 -53
-4z"/>
<path d="M6216 6030 c10 -16 19 -28 21 -26 6 6 -20 56 -29 56 -5 0 -1 -13 8
-30z"/>
<path d="M6260 5950 c12 -25 33 -71 47 -103 14 -32 28 -56 30 -53 7 7 -55 149
-77 176 -20 24 -20 24 0 -20z"/>
<path d="M6171 5943 c1 -22 58 -125 60 -110 4 38 3 42 -11 42 -11 0 -14 10
-13 38 2 31 -1 37 -17 37 -11 0 -20 -3 -19 -7z"/>
<path d="M6240 5786 c0 -10 14 -48 30 -83 23 -47 28 -68 20 -78 -7 -9 -6 -16
5 -25 9 -7 18 -11 20 -8 7 7 -25 132 -36 138 -4 3 -15 21 -23 40 -10 23 -15
28 -16 16z"/>
<path d="M6314 5446 c0 -72 -5 -147 -11 -166 -6 -19 -14 -60 -17 -90 -5 -45
-4 -50 5 -30 16 38 40 236 38 313 -1 37 1 70 4 74 11 10 8 20 -6 26 -10 4 -12
-24 -13 -127z"/>
<path d="M6431 5073 c-1 -6 -4 -20 -7 -30 -5 -17 -5 -17 6 0 6 10 9 23 6 30
-3 9 -5 9 -5 0z"/>
<path d="M6069 4764 l-24 -27 28 18 c15 9 27 21 27 26 0 14 -5 11 -31 -17z"/>
<path d="M4111 4899 c-13 -5 -21 -12 -18 -15 3 -3 18 1 34 10 31 17 21 20 -16
5z"/>
<path d="M4050 4870 c-8 -5 -10 -10 -5 -10 6 0 17 5 25 10 8 5 11 10 5 10 -5
0 -17 -5 -25 -10z"/>
<path d="M4088 4837 c-25 -13 -62 -36 -81 -51 -19 -16 -38 -28 -41 -27 -3 1
-14 -6 -23 -15 -10 -8 -29 -23 -43 -34 -14 -10 -22 -21 -18 -25 4 -4 28 11 54
34 26 22 51 41 56 41 5 0 18 9 30 20 12 10 25 17 30 14 4 -3 8 -1 8 4 0 4 18
18 40 31 22 12 40 24 40 27 0 6 0 6 -52 -19z"/>
<path d="M4015 4840 c-3 -6 1 -7 9 -4 18 7 21 14 7 14 -6 0 -13 -4 -16 -10z"/>
<path d="M3969 4820 l-24 -20 28 11 c15 7 27 16 27 21 0 12 -5 10 -31 -12z"/>
<path d="M3886 4765 c-39 -34 -64 -46 -50 -23 4 7 3 8 -4 4 -7 -4 -12 -13 -12
-20 0 -7 -29 -38 -65 -67 -106 -88 -74 -75 41 16 59 47 109 85 113 85 3 0 12
9 19 20 18 30 2 24 -42 -15z"/>
<path d="M4135 4780 c-3 -5 -1 -10 4 -10 6 0 11 5 11 10 0 6 -2 10 -4 10 -3 0
-8 -4 -11 -10z"/>
<path d="M3729 4663 c-13 -16 -12 -17 4 -4 16 13 21 21 13 21 -2 0 -10 -8 -17
-17z"/>
<path d="M3825 4650 c-3 -5 -1 -10 4 -10 6 0 11 5 11 10 0 6 -2 10 -4 10 -3 0
-8 -4 -11 -10z"/>
<path d="M3695 4640 c-3 -5 -1 -10 4 -10 6 0 11 5 11 10 0 6 -2 10 -4 10 -3 0
-8 -4 -11 -10z"/>
<path d="M3639 4550 c-18 -22 -39 -38 -46 -36 -7 3 -15 0 -19 -6 -4 -7 -3 -8
4 -4 19 12 14 -1 -23 -57 l-36 -52 33 40 c18 22 55 63 82 92 27 29 47 56 44
59 -3 3 -21 -13 -39 -36z"/>
<path d="M3935 4536 c-16 -13 -28 -26 -25 -28 3 -2 18 9 35 24 36 34 31 37
-10 4z"/>
<path d="M4020 4499 c-19 -15 -30 -28 -25 -28 12 0 69 48 64 54 -2 2 -20 -10
-39 -26z"/>
<path d="M3875 4480 c-3 -5 -2 -10 4 -10 5 0 13 5 16 10 3 6 2 10 -4 10 -5 0
-13 -4 -16 -10z"/>
<path d="M3966 4443 c-6 -14 -5 -15 5 -6 7 7 10 15 7 18 -3 3 -9 -2 -12 -12z"/>
<path d="M3498 4383 c-10 -2 -18 -9 -18 -14 0 -14 16 -11 30 6 7 8 11 14 9 14
-2 -1 -12 -3 -21 -6z"/>
<path d="M4090 4375 c-11 -13 -10 -14 4 -9 9 3 16 10 16 15 0 13 -6 11 -20 -6z"/>
<path d="M3597 4350 c-9 -11 -13 -20 -8 -20 11 0 35 29 29 35 -2 2 -12 -4 -21
-15z"/>
<path d="M4045 4330 c-3 -5 -2 -10 4 -10 5 0 13 5 16 10 3 6 2 10 -4 10 -5 0
-13 -4 -16 -10z"/>
<path d="M3567 4313 c-4 -3 -7 -11 -7 -17 0 -6 5 -5 12 2 6 6 9 14 7 17 -3 3
-9 2 -12 -2z"/>
<path d="M4006 4295 c-3 -8 -3 -15 0 -15 3 0 12 7 20 15 13 13 13 15 1 15 -8
0 -17 -7 -21 -15z"/>
<path d="M3815 4280 c-3 -5 -1 -10 4 -10 6 0 11 5 11 10 0 6 -2 10 -4 10 -3 0
-8 -4 -11 -10z"/>
<path d="M3434 4228 c-37 -67 -39 -72 -25 -64 13 9 64 106 58 112 -2 2 -17
-20 -33 -48z"/>
<path d="M3977 4263 c-4 -3 -7 -11 -7 -17 0 -6 5 -5 12 2 6 6 9 14 7 17 -3 3
-9 2 -12 -2z"/>
<path d="M3397 4224 c-4 -4 -7 -14 -7 -23 0 -11 3 -12 11 -4 6 6 10 16 7 23
-2 6 -7 8 -11 4z"/>
<path d="M3939 4213 c-13 -16 -12 -17 4 -4 9 7 17 15 17 17 0 8 -8 3 -21 -13z"/>
<path d="M3665 4179 c-4 -6 -5 -12 -2 -15 2 -3 7 2 10 11 7 17 1 20 -8 4z"/>
<path d="M3373 4163 c-3 -10 -14 -36 -23 -58 -31 -71 -59 -166 -65 -219 l-5
-51 16 55 c8 30 23 80 31 110 9 30 23 65 31 78 8 13 18 41 22 62 8 41 4 53 -7
23z"/>
<path d="M3632 4113 c-19 -51 -24 -73 -13 -73 11 0 26 39 17 47 -3 3 -1 14 5
25 6 11 9 22 6 24 -2 3 -9 -8 -15 -23z"/>
<path d="M3585 4000 c-3 -5 -2 -10 4 -10 5 0 13 5 16 10 3 6 2 10 -4 10 -5 0
-13 -4 -16 -10z"/>
<path d="M3545 3962 c-10 -20 -19 -48 -20 -62 -1 -14 -5 -40 -9 -57 -4 -18 -4
-33 1 -33 8 0 57 180 50 186 -2 2 -12 -13 -22 -34z"/>
<path d="M3617 3983 c-4 -3 -7 -11 -7 -17 0 -6 5 -5 12 2 6 6 9 14 7 17 -3 3
-9 2 -12 -2z"/>
<path d="M3323 3882 c-5 -33 -6 -68 -3 -78 4 -10 9 14 13 56 3 41 5 76 3 77
-2 2 -7 -23 -13 -55z"/>
<path d="M3270 3823 c0 -5 5 -15 10 -23 8 -12 10 -11 10 8 0 12 -4 22 -10 22
-5 0 -10 -3 -10 -7z"/>
<path d="M3316 3715 c4 -38 8 -72 10 -74 8 -9 2 105 -7 124 -6 13 -7 -4 -3
-50z"/>
<path d="M6910 4500 c0 -12 8 -12 35 0 18 8 17 9 -7 9 -16 1 -28 -3 -28 -9z"/>
<path d="M6990 4486 c0 -2 9 -6 20 -9 11 -3 20 -1 20 4 0 5 -9 9 -20 9 -11 0
-20 -2 -20 -4z"/>
<path d="M7040 4471 c0 -5 6 -14 14 -20 12 -10 13 -8 9 8 -5 21 -23 30 -23 12z"/>
<path d="M6265 4460 c-18 -5 -1 -6 45 -3 41 2 76 6 79 8 7 8 -91 3 -124 -5z"/>
<path d="M6200 4450 c-12 -8 -10 -10 8 -10 13 0 20 4 17 10 -7 12 -6 12 -25 0z"/>
<path d="M6160 4440 c-9 -6 -10 -10 -3 -10 6 0 15 5 18 10 8 12 4 12 -15 0z"/>
<path d="M6065 4420 c-14 -7 -8 -8 20 -3 22 3 42 7 44 9 9 8 -45 2 -64 -6z"/>
<path d="M7117 4378 c26 -29 59 -64 73 -78 107 -108 239 -387 240 -507 0 -17
5 -35 10 -38 18 -11 0 123 -24 189 -13 34 -52 116 -87 183 -54 103 -78 136
-152 213 -93 95 -143 127 -60 38z"/>
<path d="M7130 4421 c0 -5 5 -13 10 -16 6 -3 10 -2 10 4 0 5 -4 13 -10 16 -5
3 -10 2 -10 -4z"/>
<path d="M6163 4403 c-29 -9 -53 -19 -53 -23 0 -5 17 -2 38 5 20 8 71 18 112
23 l75 9 -60 1 c-33 0 -84 -7 -112 -15z"/>
<path d="M5990 4400 c-24 -15 -7 -18 25 -4 23 10 25 13 10 13 -11 1 -27 -3
-35 -9z"/>
<path d="M7160 4391 c0 -5 5 -13 10 -16 6 -3 10 -2 10 4 0 5 -4 13 -10 16 -5
3 -10 2 -10 -4z"/>
<path d="M6070 4375 c-14 -16 -3 -20 19 -6 8 5 9 11 3 15 -5 3 -15 -1 -22 -9z"/>
<path d="M5925 4370 c-3 -5 1 -10 9 -10 8 0 18 5 21 10 3 6 -1 10 -9 10 -8 0
-18 -4 -21 -10z"/>
<path d="M6420 4360 c-24 -8 -23 -8 8 -9 17 -1 32 4 32 9 0 11 -5 11 -40 0z"/>
<path d="M7006 4362 c34 -31 156 -124 151 -115 -10 16 -143 123 -153 123 -4 0
-4 -4 2 -8z"/>
<path d="M5885 4349 c-11 -17 1 -21 15 -4 8 9 8 15 2 15 -6 0 -14 -5 -17 -11z"/>
<path d="M5997 4344 c-16 -9 -27 -18 -24 -21 3 -2 22 5 44 16 21 11 31 20 23
20 -8 0 -28 -7 -43 -15z"/>
<path d="M6236 4325 c-3 -9 0 -15 8 -15 7 0 13 7 13 15 0 8 -4 15 -8 15 -4 0
-9 -7 -13 -15z"/>
<path d="M6294 4322 c-18 -14 -18 -14 -1 -8 10 3 25 6 33 6 8 0 14 4 14 8 0
14 -26 10 -46 -6z"/>
<path d="M6373 4323 c9 -2 25 -2 35 0 9 3 1 5 -18 5 -19 0 -27 -2 -17 -5z"/>
<path d="M7010 4326 c0 -2 8 -10 18 -17 15 -13 16 -12 3 4 -13 16 -21 21 -21
13z"/>
<path d="M5824 4305 c-10 -8 -14 -14 -9 -14 6 0 19 6 29 14 11 8 15 15 10 15
-6 0 -19 -7 -30 -15z"/>
<path d="M5930 4310 c-13 -8 -13 -10 2 -10 9 0 20 5 23 10 8 13 -5 13 -25 0z"/>
<path d="M6180 4310 c-18 -12 -2 -12 25 0 13 6 15 9 5 9 -8 0 -22 -4 -30 -9z"/>
<path d="M6092 4293 c-24 -8 -41 -17 -39 -19 5 -5 107 25 107 31 0 8 -23 4
-68 -12z"/>
<path d="M6590 4299 c0 -5 9 -9 20 -9 11 0 20 2 20 4 0 2 -9 6 -20 9 -11 3
-20 1 -20 -4z"/>
<path d="M6400 4290 c-13 -8 -12 -10 3 -10 9 0 17 5 17 10 0 12 -1 12 -20 0z"/>
<path d="M5809 4233 c-75 -58 -143 -127 -103 -105 10 6 35 27 54 47 19 21 62
55 94 76 33 22 53 39 45 39 -8 0 -48 -26 -90 -57z"/>
<path d="M7030 4288 c0 -5 162 -168 167 -168 2 0 1 6 -3 13 -4 7 -3 9 2 4 5
-5 9 -12 9 -15 0 -4 16 -41 36 -82 20 -41 47 -109 60 -150 13 -41 27 -77 31
-80 4 -3 8 -29 10 -58 3 -54 20 -76 26 -33 2 13 -1 21 -6 17 -5 -3 -7 5 -5 17
9 47 -55 258 -94 313 -12 17 -27 43 -33 58 -5 15 -18 29 -27 33 -10 4 -20 9
-23 12 -3 3 -26 23 -52 44 -27 21 -48 45 -48 53 0 8 -5 12 -10 9 -6 -4 -17 -1
-25 5 -8 7 -15 10 -15 8z"/>
<path d="M6188 4273 c6 -2 18 -2 25 0 6 3 1 5 -13 5 -14 0 -19 -2 -12 -5z"/>
<path d="M6678 4273 c7 -3 16 -2 19 1 4 3 -2 6 -13 5 -11 0 -14 -3 -6 -6z"/>
<path d="M5750 4245 c-13 -14 -21 -27 -18 -30 2 -3 15 6 28 20 13 14 21 27 18
30 -2 3 -15 -6 -28 -20z"/>
<path d="M6548 4263 c7 -3 16 -2 19 1 4 3 -2 6 -13 5 -11 0 -14 -3 -6 -6z"/>
<path d="M6710 4266 c0 -3 26 -19 58 -36 56 -30 212 -171 212 -191 0 -6 11
-25 24 -42 31 -42 66 -121 73 -166 6 -36 20 -54 35 -45 10 6 -48 168 -79 221
-35 60 -195 209 -256 238 -49 24 -67 30 -67 21z"/>
<path d="M6836 4254 c-11 -7 -17 -17 -13 -20 3 -4 14 1 23 10 21 22 15 28 -10
10z"/>
<path d="M6952 4234 c32 -20 60 -44 63 -54 3 -9 17 -23 30 -30 14 -7 25 -20
25 -27 0 -8 5 -11 10 -8 6 3 10 2 10 -4 0 -5 6 -16 13 -23 29 -32 71 -118 99
-202 27 -79 30 -301 5 -386 -15 -53 -14 -78 2 -51 35 56 39 362 7 464 -31 98
-95 199 -163 257 -66 56 -130 100 -148 100 -5 0 16 -16 47 -36z"/>
<path d="M6635 4236 c67 -29 170 -96 239 -157 25 -23 46 -36 46 -30 0 5 -18
25 -41 43 -22 18 -53 44 -68 58 -32 30 -163 97 -206 105 -16 4 -3 -5 30 -19z"/>
<path d="M6938 4202 c9 -10 19 -14 21 -9 2 5 -3 13 -10 18 -24 15 -30 10 -11
-9z"/>
<path d="M6970 4170 c0 -5 5 -10 11 -10 5 0 7 5 4 10 -3 6 -8 10 -11 10 -2 0
-4 -4 -4 -10z"/>
<path d="M6446 4162 c-4 -8 15 -9 61 -5 176 14 380 -126 429 -294 9 -31 19
-51 23 -45 14 24 34 -9 42 -69 l8 -64 -3 65 c-2 36 -11 81 -20 100 -9 19 -13
24 -10 11 4 -15 2 -22 -6 -19 -6 2 -11 7 -11 11 0 4 -10 32 -24 63 -36 81
-119 163 -213 210 -69 34 -86 38 -173 42 -62 3 -99 0 -103 -6z"/>
<path d="M7010 4135 c0 -4 18 -27 39 -53 40 -47 91 -138 91 -163 1 -8 7 -25
16 -39 l15 -25 -7 34 c-10 53 -61 147 -109 201 -25 28 -45 48 -45 45z"/>
<path d="M5665 4110 c3 -5 -6 -28 -20 -51 -15 -22 -25 -42 -23 -44 2 -2 17 19
34 45 25 39 29 50 17 54 -8 3 -11 1 -8 -4z"/>
<path d="M6468 4113 c6 -2 18 -2 25 0 6 3 1 5 -13 5 -14 0 -19 -2 -12 -5z"/>
<path d="M6560 4110 c8 -5 21 -10 28 -10 50 0 218 -123 234 -170 3 -10 6 -11
12 -2 8 14 -58 88 -114 127 -22 15 -65 36 -97 46 -61 21 -86 24 -63 9z"/>
<path d="M6340 4020 l-25 -8 25 0 c14 0 39 4 55 8 l30 8 -30 0 c-16 0 -41 -4
-55 -8z"/>
<path d="M6660 4005 c7 -9 15 -13 17 -11 7 7 -7 26 -19 26 -6 0 -6 -6 2 -15z"/>
<path d="M6276 3995 c-16 -12 -17 -15 -4 -15 9 0 18 7 22 15 7 18 6 18 -18 0z"/>
<path d="M6215 3970 c-10 -11 -16 -20 -13 -20 3 0 15 9 28 20 13 11 19 20 13
20 -5 0 -18 -9 -28 -20z"/>
<path d="M6410 3982 c0 -4 16 -6 35 -4 19 2 35 6 35 8 0 2 -16 4 -35 4 -19 0
-35 -4 -35 -8z"/>
<path d="M6506 3965 c24 -18 31 -19 31 -2 0 7 -12 14 -26 15 -24 2 -24 2 -5
-13z"/>
<path d="M6130 3935 c-57 -30 -72 -44 -64 -56 3 -6 20 1 39 15 19 15 38 26 44
26 6 0 15 9 21 20 13 24 15 25 -40 -5z"/>
<path d="M6367 3949 c7 -7 15 -10 18 -7 3 3 -2 9 -12 12 -14 6 -15 5 -6 -5z"/>
<path d="M6316 3941 c-4 -5 3 -7 14 -4 23 6 26 13 6 13 -8 0 -17 -4 -20 -9z"/>
<path d="M6576 3920 c12 -14 34 -50 50 -80 26 -52 28 -62 27 -168 -1 -63 1
-112 3 -109 3 3 9 31 14 64 14 103 -30 246 -92 299 l-23 19 21 -25z"/>
<path d="M6940 3934 c0 -6 7 -19 15 -30 8 -10 14 -14 14 -9 0 6 -6 19 -14 29
-8 11 -15 15 -15 10z"/>
<path d="M6471 3920 c0 -8 4 -24 9 -35 5 -13 9 -14 9 -5 0 8 -4 24 -9 35 -5
13 -9 14 -9 5z"/>
<path d="M6661 3913 c0 -4 4 -17 8 -27 6 -15 9 -16 13 -5 3 8 -1 20 -8 27 -8
7 -14 9 -13 5z"/>
<path d="M5935 3881 c-3 -5 -1 -12 5 -16 5 -3 10 1 10 9 0 18 -6 21 -15 7z"/>
<path d="M6265 3870 c-3 -6 1 -7 9 -4 18 7 21 14 7 14 -6 0 -13 -4 -16 -10z"/>
<path d="M6343 3863 c9 -2 23 -2 30 0 6 3 -1 5 -18 5 -16 0 -22 -2 -12 -5z"/>
<path d="M6418 3863 c7 -3 16 -2 19 1 4 3 -2 6 -13 5 -11 0 -14 -3 -6 -6z"/>
<path d="M6681 3845 c0 -11 4 -27 9 -35 9 -13 10 -13 9 0 0 8 -4 24 -9 35 l-9
20 0 -20z"/>
<path d="M6846 3850 c7 -8 14 -24 17 -35 4 -19 5 -19 6 1 0 12 -7 28 -16 35
-16 12 -17 12 -7 -1z"/>
<path d="M6194 3834 c-18 -14 -18 -14 6 -3 31 14 36 19 24 19 -6 0 -19 -7 -30
-16z"/>
<path d="M7172 3825 c0 -16 2 -22 5 -12 2 9 2 23 0 30 -3 6 -5 -1 -5 -18z"/>
<path d="M6145 3810 c-3 -5 -2 -10 4 -10 5 0 13 5 16 10 3 6 2 10 -4 10 -5 0
-13 -4 -16 -10z"/>
<path d="M6958 3755 c2 -25 7 -45 12 -45 11 0 7 83 -5 87 -6 2 -9 -15 -7 -42z"/>
<path d="M6106 3774 c-9 -24 -2 -26 12 -4 7 11 8 20 3 20 -5 0 -12 -7 -15 -16z"/>
<path d="M7177 3770 c3 -11 7 -20 9 -20 2 0 4 9 4 20 0 11 -4 20 -9 20 -5 0
-7 -9 -4 -20z"/>
<path d="M6060 3752 c0 -5 -9 -18 -21 -31 -12 -12 -18 -25 -14 -29 3 -4 11 1
16 11 6 9 16 14 22 11 7 -4 9 -3 4 1 -4 5 0 17 10 27 15 17 15 18 0 18 -10 0
-17 -4 -17 -8z"/>
<path d="M7107 3727 c-7 -43 3 -157 14 -157 7 0 2 180 -5 188 -2 1 -6 -13 -9
-31z"/>
<path d="M5370 3714 c-12 -31 -12 -34 -1 -34 5 0 11 14 13 30 6 37 1 38 -12 4z"/>
<path d="M5945 3710 c-3 -6 1 -7 9 -4 18 7 21 14 7 14 -6 0 -13 -4 -16 -10z"/>
<path d="M7183 3695 c-3 -9 -3 -18 -1 -21 3 -3 8 4 11 16 6 23 -1 27 -10 5z"/>
<path d="M5885 3668 c-14 -26 -15 -30 -3 -20 13 10 17 10 20 0 3 -8 10 -4 18
12 13 24 12 24 -5 10 -16 -14 -17 -13 -11 8 10 31 4 27 -19 -10z"/>
<path d="M6722 3675 c0 -16 2 -22 5 -12 2 9 2 23 0 30 -3 6 -5 -1 -5 -18z"/>
<path d="M6952 3680 c0 -14 2 -19 5 -12 2 6 2 18 0 25 -3 6 -5 1 -5 -13z"/>
<path d="M6972 3680 c0 -14 2 -19 5 -12 2 6 2 18 0 25 -3 6 -5 1 -5 -13z"/>
<path d="M7351 3648 c-2 -18 -4 -55 -4 -83 -1 -27 -5 -52 -9 -55 -10 -8 -26
-110 -18 -115 9 -6 35 83 26 92 -3 3 -2 11 3 17 13 15 25 176 14 176 -5 0 -10
-15 -12 -32z"/>
<path d="M5971 3637 c-30 -48 -26 -58 4 -12 15 20 24 39 22 42 -3 2 -14 -11
-26 -30z"/>
<path d="M6889 3635 c-6 -40 -4 -53 7 -43 3 3 4 23 2 44 l-3 39 -6 -40z"/>
<path d="M7001 3654 c0 -11 3 -14 6 -6 3 7 2 16 -1 19 -3 4 -6 -2 -5 -13z"/>
<path d="M6842 3635 c0 -16 2 -22 5 -12 2 9 2 23 0 30 -3 6 -5 -1 -5 -18z"/>
<path d="M5505 3641 c-3 -5 -1 -12 5 -16 5 -3 10 1 10 9 0 18 -6 21 -15 7z"/>
<path d="M7180 3630 c0 -11 4 -20 9 -20 5 0 7 9 4 20 -3 11 -7 20 -9 20 -2 0
-4 -9 -4 -20z"/>
<path d="M6951 3614 c0 -11 3 -14 6 -6 3 7 2 16 -1 19 -3 4 -6 -2 -5 -13z"/>
<path d="M7397 3623 c-4 -3 -7 -11 -7 -17 0 -6 5 -5 12 2 6 6 9 14 7 17 -3 3
-9 2 -12 -2z"/>
<path d="M7175 3560 c-4 -23 -5 -44 -2 -46 3 -3 8 13 12 36 4 23 5 44 2 46 -3
3 -8 -13 -12 -36z"/>
<path d="M6938 3567 c-3 -19 -2 -25 4 -19 6 6 8 18 6 28 -3 14 -5 12 -10 -9z"/>
<path d="M7392 3555 c0 -16 2 -22 5 -12 2 9 2 23 0 30 -3 6 -5 -1 -5 -18z"/>
<path d="M6635 3516 c-4 -20 -10 -34 -15 -31 -9 6 -50 -50 -50 -70 0 -9 -28
-44 -62 -79 -65 -66 -134 -101 -223 -114 -36 -5 -37 -6 -15 -12 46 -13 -66
-23 -179 -17 -70 4 -157 18 -256 42 -175 42 -323 66 -397 64 -40 -1 -21 -6 72
-18 69 -9 132 -20 140 -26 8 -5 29 -10 45 -11 17 -1 73 -11 125 -23 126 -28
150 -32 291 -45 57 -5 180 13 196 29 8 8 24 16 36 17 41 2 44 3 58 14 8 7 30
19 49 29 44 22 124 106 141 148 7 18 19 36 26 40 13 8 38 86 29 94 -2 3 -8
-11 -11 -31z"/>
<path d="M7103 3534 c-20 -21 -16 -42 3 -22 9 9 15 21 13 26 -2 6 -9 4 -16 -4z"/>
<path d="M6864 3525 c-9 -22 1 -29 15 -11 8 10 9 16 1 21 -5 3 -13 -1 -16 -10z"/>
<path d="M6916 3503 c-6 -14 -5 -15 5 -6 7 7 10 15 7 18 -3 3 -9 -2 -12 -12z"/>
<path d="M7371 3468 c-16 -65 -96 -229 -156 -320 -24 -37 -40 -70 -35 -73 6
-4 10 1 10 9 0 9 4 16 9 16 5 0 16 15 25 34 9 19 20 36 24 38 15 7 107 187
118 233 4 17 11 36 17 43 5 6 7 12 4 12 -3 0 -2 14 3 30 5 17 5 30 1 30 -4 0
-13 -24 -20 -52z"/>
<path d="M6671 3484 c0 -11 3 -14 6 -6 3 7 2 16 -1 19 -3 4 -6 -2 -5 -13z"/>
<path d="M7167 3493 c-4 -3 -7 -13 -7 -22 1 -13 3 -13 11 2 11 19 8 33 -4 20z"/>
<path d="M7086 3473 c-4 -9 -2 -21 4 -27 8 -8 9 -6 4 8 -5 13 -4 17 4 12 7 -4
12 -1 12 8 0 21 -16 20 -24 -1z"/>
<path d="M6846 3465 c-9 -26 -7 -32 5 -12 6 10 9 21 6 23 -2 3 -7 -2 -11 -11z"/>
<path d="M6629 3403 c-94 -164 -172 -222 -354 -262 -22 -5 -31 -9 -20 -10 39
-2 155 27 171 43 8 9 19 16 24 16 21 0 90 56 123 98 39 53 100 162 94 169 -3
2 -20 -22 -38 -54z"/>
<path d="M6876 3436 c-49 -80 -47 -76 -31 -70 8 4 15 11 15 16 0 5 9 23 21 40
12 16 19 32 16 34 -3 3 -13 -6 -21 -20z"/>
<path d="M7151 3434 c-1 -11 -4 -24 -8 -28 -4 -4 -13 -24 -19 -45 -9 -33 -9
-37 7 -38 9 -1 19 7 22 17 3 13 1 17 -10 13 -11 -5 -11 2 3 35 9 23 14 47 11
54 -3 7 -6 4 -6 -8z"/>
<path d="M6936 3423 c-6 -14 -5 -15 5 -6 7 7 10 15 7 18 -3 3 -9 -2 -12 -12z"/>
<path d="M7062 3405 c-6 -14 -7 -25 -2 -25 9 0 25 39 18 46 -3 2 -10 -7 -16
-21z"/>
<path d="M7181 3418 c-1 -9 -8 -24 -17 -32 -8 -9 -11 -16 -5 -16 14 0 34 38
27 53 -2 7 -5 5 -5 -5z"/>
<path d="M7303 3368 c-12 -16 -43 -79 -43 -87 1 -13 40 45 40 60 0 8 5 20 12
27 7 7 9 12 6 12 -3 0 -10 -6 -15 -12z"/>
<path d="M7037 3348 c-3 -12 -1 -29 4 -37 9 -13 10 -13 5 3 -4 10 -2 24 4 31
7 8 7 16 2 19 -6 3 -12 -4 -15 -16z"/>
<path d="M5376 3342 c-2 -4 12 -6 32 -4 56 5 62 10 15 11 -23 1 -44 -3 -47 -7z"/>
<path d="M6807 3324 c-10 -13 -14 -24 -10 -24 9 0 36 40 31 45 -2 2 -11 -8
-21 -21z"/>
<path d="M6889 3333 c-13 -16 -12 -17 4 -4 9 7 17 15 17 17 0 8 -8 3 -21 -13z"/>
<path d="M5246 3331 c-3 -4 -49 -11 -103 -15 -123 -9 -215 -27 -238 -46 -7 -6
-19 -8 -27 -5 -7 3 -24 -4 -36 -16 -13 -11 -30 -18 -38 -15 -9 3 -12 1 -9 -4
6 -10 -7 -14 -34 -11 -7 2 -10 -2 -7 -7 3 -5 -14 -19 -37 -32 -84 -46 -184
-120 -234 -172 -14 -16 -32 -28 -40 -28 -7 0 -13 -9 -13 -19 0 -11 -4 -23 -10
-26 -5 -3 -10 -11 -10 -18 0 -6 27 17 61 51 33 34 75 72 93 85 155 106 214
141 270 162 36 14 74 29 83 34 54 29 181 53 353 68 64 5 78 9 55 14 -44 10
-73 10 -79 0z"/>
<path d="M5628 3323 c6 -2 18 -2 25 0 6 3 1 5 -13 5 -14 0 -19 -2 -12 -5z"/>
<path d="M5678 3313 c7 -3 16 -2 19 1 4 3 -2 6 -13 5 -11 0 -14 -3 -6 -6z"/>
<path d="M6698 3239 c-37 -38 -61 -69 -55 -69 7 0 -12 -16 -42 -35 -58 -37
-79 -55 -42 -35 52 27 114 70 101 70 -11 0 -11 3 -2 12 10 10 15 10 23 -2 10
-13 10 -13 6 1 -3 9 13 35 39 64 36 40 54 67 42 64 -2 0 -33 -31 -70 -70z"/>
<path d="M7415 3300 c3 -5 10 -10 16 -10 5 0 9 5 9 10 0 6 -7 10 -16 10 -8 0
-12 -4 -9 -10z"/>
<path d="M5788 3288 c5 -5 16 -8 23 -6 8 3 3 7 -10 11 -17 4 -21 3 -13 -5z"/>
<path d="M5206 3282 c-2 -4 14 -6 37 -4 68 5 76 10 20 11 -28 0 -54 -2 -57 -7z"/>
<path d="M5328 3283 c7 -3 16 -2 19 1 4 3 -2 6 -13 5 -11 0 -14 -3 -6 -6z"/>
<path d="M7106 3274 c-5 -14 -4 -15 9 -4 17 14 19 20 6 20 -5 0 -12 -7 -15
-16z"/>
<path d="M5880 3264 c145 -39 369 -66 355 -44 -4 6 -40 10 -81 10 -44 0 -121
10 -186 25 -119 27 -179 33 -88 9z"/>
<path d="M7006 3265 c4 -8 10 -12 15 -9 14 8 10 24 -6 24 -9 0 -12 -6 -9 -15z"/>
<path d="M7396 3264 c-5 -14 -4 -15 9 -4 17 14 19 20 6 20 -5 0 -12 -7 -15
-16z"/>
<path d="M7236 3254 c-9 -24 -7 -28 9 -14 17 14 20 30 6 30 -5 0 -12 -7 -15
-16z"/>
<path d="M5008 3243 c7 -3 16 -2 19 1 4 3 -2 6 -13 5 -11 0 -14 -3 -6 -6z"/>
<path d="M6951 3198 c-26 -38 -64 -75 -151 -148 -14 -12 -5 -8 20 8 52 35 185
162 169 162 -5 0 -7 5 -4 10 3 6 4 10 1 10 -3 0 -18 -19 -35 -42z"/>
<path d="M4841 3194 c-18 -8 -31 -17 -29 -20 6 -5 78 24 78 31 0 8 -12 5 -49
-11z"/>
<path d="M7190 3172 c-14 -20 -42 -56 -64 -79 -21 -24 -34 -43 -28 -43 17 0
130 146 120 155 -2 2 -15 -13 -28 -33z"/>
<path d="M5798 3173 c6 -2 18 -2 25 0 6 3 1 5 -13 5 -14 0 -19 -2 -12 -5z"/>
<path d="M7030 3169 c0 -5 5 -7 10 -4 6 3 10 8 10 11 0 2 -4 4 -10 4 -5 0 -10
-5 -10 -11z"/>
<path d="M7320 3145 c-7 -9 -11 -18 -8 -20 3 -3 11 1 18 10 7 9 11 18 8 20 -3
3 -11 -1 -18 -10z"/>
<path d="M6505 3140 c-3 -6 1 -7 9 -4 18 7 21 14 7 14 -6 0 -13 -4 -16 -10z"/>
<path d="M6990 3135 c-7 -8 -9 -15 -6 -15 4 0 14 7 22 15 9 8 11 15 6 15 -5 0
-15 -7 -22 -15z"/>
<path d="M5328 3134 c-2 -1 -31 -4 -66 -5 -34 -1 -62 -6 -62 -10 0 -8 101 -3
220 11 l65 8 -77 0 c-43 -1 -79 -2 -80 -4z"/>
<path d="M5980 3130 c0 -5 5 -10 10 -10 6 0 10 5 10 10 0 6 -4 10 -10 10 -5 0
-10 -4 -10 -10z"/>
<path d="M6040 3128 c0 -4 24 -7 53 -7 54 1 49 5 -15 11 -21 2 -38 0 -38 -4z"/>
<path d="M5543 3123 c9 -2 23 -2 30 0 6 3 -1 5 -18 5 -16 0 -22 -2 -12 -5z"/>
<path d="M6178 3123 c12 -2 30 -2 40 0 9 3 -1 5 -23 4 -22 0 -30 -2 -17 -4z"/>
<path d="M5133 3104 c0 -8 5 -14 11 -13 18 1 52 17 41 20 -36 7 -52 5 -52 -7z"/>
<path d="M6960 3108 c0 -9 -28 -41 -62 -72 -34 -31 -57 -56 -52 -56 5 0 37 26
71 58 48 44 60 60 53 72 -8 13 -10 13 -10 -2z"/>
<path d="M5545 3090 c4 -6 -14 -10 -46 -10 -68 0 -60 -6 18 -13 61 -6 63 -6
51 13 -7 11 -16 20 -21 20 -4 0 -5 -4 -2 -10z"/>
<path d="M5098 3083 c7 -3 16 -2 19 1 4 3 -2 6 -13 5 -11 0 -14 -3 -6 -6z"/>
<path d="M5623 3083 c9 -2 23 -2 30 0 6 3 -1 5 -18 5 -16 0 -22 -2 -12 -5z"/>
<path d="M5740 3070 c0 -4 30 -13 68 -19 186 -31 229 -36 257 -30 27 6 26 7
-13 8 -50 1 -233 28 -279 40 -18 5 -33 6 -33 1z"/>
<path d="M6615 3070 c-3 -6 1 -7 9 -4 18 7 21 14 7 14 -6 0 -13 -4 -16 -10z"/>
<path d="M5600 3060 c0 -5 15 -10 33 -10 17 -1 59 -7 92 -15 69 -17 87 -18 65
-6 -12 7 -166 41 -186 41 -2 0 -4 -4 -4 -10z"/>
<path d="M4590 3040 c-9 -6 -10 -10 -3 -10 6 0 15 5 18 10 8 12 4 12 -15 0z"/>
<path d="M7245 3040 c-3 -5 -1 -10 4 -10 6 0 11 5 11 10 0 6 -2 10 -4 10 -3 0
-8 -4 -11 -10z"/>
<path d="M7091 3026 c-9 -11 -9 -15 0 -18 14 -5 -69 -90 -112 -115 -27 -16
-38 -33 -21 -33 13 0 182 161 182 173 0 7 -5 4 -11 -5 -5 -10 -15 -18 -21 -18
-7 0 -6 5 2 15 7 8 8 15 2 15 -5 0 -15 -6 -21 -14z"/>
<path d="M5810 3020 c0 -5 4 -10 9 -10 6 0 13 5 16 10 3 6 -1 10 -9 10 -9 0
-16 -4 -16 -10z"/>
<path d="M6150 3019 c-18 -6 -10 -7 25 -3 27 3 51 7 54 10 7 7 -53 2 -79 -7z"/>
<path d="M5884 2998 c-4 -7 -3 -8 5 -4 6 4 17 3 24 -2 8 -7 25 -7 47 -2 l35 9
-33 -3 c-18 -1 -35 1 -38 6 -8 12 -32 10 -40 -4z"/>
<path d="M6370 2989 c0 -5 5 -7 10 -4 6 3 10 8 10 11 0 2 -4 4 -10 4 -5 0 -10
-5 -10 -11z"/>
<path d="M4505 2980 c-3 -6 1 -7 9 -4 18 7 21 14 7 14 -6 0 -13 -4 -16 -10z"/>
<path d="M6338 2983 c7 -3 16 -2 19 1 4 3 -2 6 -13 5 -11 0 -14 -3 -6 -6z"/>
<path d="M5968 2973 c7 -3 16 -2 19 1 4 3 -2 6 -13 5 -11 0 -14 -3 -6 -6z"/>
<path d="M6110 2970 c-13 -9 -13 -10 0 -9 8 0 24 4 35 9 l20 9 -20 0 c-11 0
-27 -4 -35 -9z"/>
<path d="M6176 2969 c6 -11 35 -11 51 -1 8 5 -1 8 -22 9 -19 1 -32 -3 -29 -8z"/>
<path d="M6288 2973 c7 -3 16 -2 19 1 4 3 -2 6 -13 5 -11 0 -14 -3 -6 -6z"/>
<path d="M7165 2969 c-11 -17 1 -21 15 -4 8 9 8 15 2 15 -6 0 -14 -5 -17 -11z"/>
<path d="M7000 2949 c-17 -30 -6 -34 14 -4 9 14 12 25 7 25 -6 0 -15 -9 -21
-21z"/>
<path d="M6668 2952 c-31 -6 -20 -22 12 -18 17 2 33 6 36 8 7 8 -28 15 -48 10z"/>
<path d="M7107 2890 c-32 -28 -54 -50 -49 -50 10 0 122 89 122 96 0 11 -21 -2
-73 -46z"/>
<path d="M5140 2920 c-12 -8 -10 -10 10 -9 14 0 34 4 45 9 17 7 16 9 -10 9
-16 0 -37 -4 -45 -9z"/>
<path d="M4387 2903 c-4 -3 -7 -11 -7 -17 0 -6 5 -5 12 2 6 6 9 14 7 17 -3 3
-9 2 -12 -2z"/>
<path d="M6525 2887 c-50 -13 -47 -11 -39 -31 5 -14 8 -14 18 -2 6 7 28 19 49
26 20 6 37 13 37 16 0 6 -19 3 -65 -9z"/>
<path d="M5571 2870 c7 -4 43 -10 79 -13 44 -4 55 -3 35 3 -41 11 -132 20
-114 10z"/>
<path d="M5753 2873 c9 -2 23 -2 30 0 6 3 -1 5 -18 5 -16 0 -22 -2 -12 -5z"/>
<path d="M6585 2870 c-13 -5 -14 -9 -5 -9 8 0 24 4 35 9 13 5 14 9 5 9 -8 0
-24 -4 -35 -9z"/>
<path d="M6430 2861 c0 -4 -12 -7 -27 -5 -15 1 -33 -2 -39 -7 -7 -5 -16 -9
-20 -8 -5 1 -13 0 -19 -1 -5 -1 -14 -3 -20 -5 -5 -1 -73 -3 -150 -4 -104 -2
-132 -5 -110 -12 38 -12 261 -1 337 16 31 7 59 11 62 8 2 -3 10 -2 16 2 9 6 9
10 -1 16 -18 11 -29 11 -29 0z"/>
<path d="M6896 2844 c-3 -8 -12 -11 -20 -8 -8 3 -16 1 -20 -4 -6 -9 15 -8 52
3 25 8 30 22 7 22 -8 0 -16 -6 -19 -13z"/>
<path d="M5825 2835 c119 -15 192 -19 182 -9 -7 8 -46 11 -182 18 l-110 5 110
-14z"/>
<path d="M6776 2801 c-4 -5 3 -7 14 -4 23 6 26 13 6 13 -8 0 -17 -4 -20 -9z"/>
<path d="M6710 2780 c-18 -12 -2 -12 25 0 13 6 15 9 5 9 -8 0 -22 -4 -30 -9z"/>
<path d="M6825 2780 c-3 -5 -2 -10 4 -10 5 0 13 5 16 10 3 6 2 10 -4 10 -5 0
-13 -4 -16 -10z"/>
<path d="M5238 2772 c-37 -4 -73 -13 -80 -21 -11 -12 -9 -13 12 -7 14 4 79 9
145 11 100 3 109 2 55 -5 -36 -5 -94 -11 -130 -15 -102 -10 -285 -72 -305
-104 -3 -6 -22 -18 -41 -27 -28 -14 -38 -14 -44 -5 -5 9 -9 10 -14 2 -4 -6 -3
-11 2 -11 6 0 13 -8 17 -17 4 -13 -3 -26 -27 -47 -50 -43 -22 -28 60 33 39 29
72 60 72 68 0 8 5 11 11 8 5 -4 38 7 72 23 80 39 107 47 107 31 0 -8 5 -6 13
4 9 14 39 20 132 28 127 11 203 7 325 -17 138 -28 300 -43 463 -44 280 -2 301
3 47 10 -219 7 -398 22 -440 37 -8 4 -26 8 -40 10 -14 2 -59 10 -100 18 l-75
14 70 -3 c39 -2 171 -13 295 -25 195 -18 592 -30 579 -17 -2 2 -98 7 -214 9
-115 3 -228 8 -250 11 -22 2 -89 7 -150 11 -60 4 -137 11 -170 17 -113 21
-297 29 -397 20z m-338 -187 c-7 -8 -17 -15 -23 -15 -6 0 -2 7 9 15 25 19 30
19 14 0z"/>
<path d="M6668 2763 c7 -3 16 -2 19 1 4 3 -2 6 -13 5 -11 0 -14 -3 -6 -6z"/>
<path d="M6518 2753 c6 -2 18 -2 25 0 6 3 1 5 -13 5 -14 0 -19 -2 -12 -5z"/>
<path d="M6794 2745 c-24 -18 -7 -19 26 0 16 9 19 14 9 15 -8 0 -24 -7 -35
-15z"/>
<path d="M6718 2743 c7 -3 16 -2 19 1 4 3 -2 6 -13 5 -11 0 -14 -3 -6 -6z"/>
<path d="M6520 2730 c-11 -7 -2 -9 28 -6 23 2 46 6 49 10 10 10 -61 7 -77 -4z"/>
<path d="M6475 2720 c-3 -5 -2 -10 4 -10 5 0 13 5 16 10 3 6 2 10 -4 10 -5 0
-13 -4 -16 -10z"/>
<path d="M4695 2670 c-30 -27 -52 -50 -48 -50 11 1 120 100 111 100 -4 0 -33
-22 -63 -50z"/>
<path d="M6603 2703 c-23 -9 -14 -20 12 -15 14 2 25 8 25 13 0 10 -17 11 -37
2z"/>
<path d="M4960 2690 c0 -5 5 -10 11 -10 5 0 7 5 4 10 -3 6 -8 10 -11 10 -2 0
-4 -4 -4 -10z"/>
<path d="M5338 2693 c12 -2 30 -2 40 0 9 3 -1 5 -23 4 -22 0 -30 -2 -17 -4z"/>
<path d="M5408 2693 c7 -3 16 -2 19 1 4 3 -2 6 -13 5 -11 0 -14 -3 -6 -6z"/>
<path d="M5100 2670 c-18 -12 -2 -12 25 0 13 6 15 9 5 9 -8 0 -22 -4 -30 -9z"/>
<path d="M6418 2673 c7 -3 16 -2 19 1 4 3 -2 6 -13 5 -11 0 -14 -3 -6 -6z"/>
<path d="M6474 2673 c15 -4 16 -7 5 -15 -11 -7 -11 -9 -1 -6 20 5 16 23 -5 25
-15 2 -15 1 1 -4z"/>
<path d="M6344 2641 c-6 -6 -23 -7 -248 -9 -104 -1 -187 -5 -184 -8 8 -7 400
-6 461 2 26 4 47 10 47 14 0 7 -69 8 -76 1z"/>
<path d="M5858 2633 c6 -2 18 -2 25 0 6 3 1 5 -13 5 -14 0 -19 -2 -12 -5z"/>
<path d="M4602 2558 c-22 -29 -43 -66 -47 -83 -5 -23 -1 -19 15 15 12 25 35
60 52 77 18 18 29 35 26 38 -3 3 -23 -18 -46 -47z"/>
<path d="M5848 2583 c7 -3 16 -2 19 1 4 3 -2 6 -13 5 -11 0 -14 -3 -6 -6z"/>
<path d="M4777 2546 c-19 -19 -38 -32 -42 -28 -5 4 -5 1 -1 -5 4 -8 -5 -25
-22 -41 -17 -16 -35 -40 -42 -53 -7 -13 7 -3 32 24 24 26 49 47 56 47 7 0 12
7 12 16 0 9 12 27 27 40 15 13 24 26 21 30 -4 3 -22 -10 -41 -30z"/>
<path d="M4775 2479 c-11 -17 1 -21 15 -4 8 9 8 15 2 15 -6 0 -14 -5 -17 -11z"/>
<path d="M4631 2401 c-29 -56 -26 -65 4 -12 14 24 23 46 21 48 -3 3 -14 -13
-25 -36z"/>
<path d="M4720 2432 c0 -5 -8 -17 -18 -28 -10 -11 -27 -33 -37 -49 -13 -20 -6
-16 21 14 47 54 58 71 44 71 -5 0 -10 -4 -10 -8z"/>
<path d="M4632 2351 c-6 -17 -9 -31 -6 -31 7 0 25 52 20 57 -2 2 -8 -10 -14
-26z"/>
<path d="M4995 3770 c-3 -5 -1 -10 4 -10 6 0 11 5 11 10 0 6 -2 10 -4 10 -3 0
-8 -4 -11 -10z"/>
<path d="M4890 3635 c-7 -9 -11 -18 -8 -20 3 -3 11 1 18 10 7 9 11 18 8 20 -3
3 -11 -1 -18 -10z"/>
<path d="M4785 3541 c-3 -5 -1 -12 5 -16 5 -3 10 1 10 9 0 18 -6 21 -15 7z"/>
<path d="M3090 2740 c0 -5 5 -10 11 -10 5 0 7 5 4 10 -3 6 -8 10 -11 10 -2 0
-4 -4 -4 -10z"/>
</g>
</svg>
